<svg viewBox="0 0 458 543" version="1.1" xmlns="http://www.w3.org/2000/svg"><path fill="#e85a5a"  stroke="none" opacity="1" d="M 125.5 97 L 128 98.5 L 129.5 101 Q 132.5 104 139.5 103 L 141.5 105 L 142 102 Q 147.6 101 149 105.5 L 150.5 108 L 153 106.5 L 153.5 100 Q 158.4 105.1 157 116.5 L 156 119 L 150 122.5 L 150 124 L 146 124 L 142.5 115 L 135.5 114 L 133 111.5 L 131.5 109 Q 128.9 112.4 121.5 111 L 115 114.5 Q 118.7 115.3 118 120.5 L 112.5 128 L 108.5 125 L 98 125 L 99 133.5 L 101.5 136 L 112 142.5 L 113 147.5 L 115.5 150 Q 118.1 149.3 117 152 L 119.5 152 L 124.5 153 L 129.5 157 L 139.5 159 L 141 156 Q 144.1 155.3 143.5 158 L 154.5 158 L 156 156.5 Q 152.3 154.8 155.5 153 L 169.5 153 Q 170.9 148.3 176 149 L 177.5 146 L 190.5 147 L 201 144.5 Q 198.3 143.4 199 140 Q 204.8 139.4 207.5 144 L 208 142.5 L 207 139.5 L 210.5 138 L 223.5 142 L 227.5 145 L 234.5 146 L 230 140.5 L 229 137 Q 232.8 136 234 138.5 L 234 140.5 L 239.5 146 Q 242.5 145.2 241 149 L 230.5 150 L 221.5 146 L 220 148.5 L 221 151 Q 217.6 149.3 210.5 150 Q 201.8 153.8 187.5 152 L 181 151 L 182.5 155 Q 189.3 153.3 191 156.5 L 189.5 159 L 183.5 158 Q 181 159.2 182 163 L 176 164.5 Q 179.2 169.2 187 168 Q 188.8 172.5 183.5 171 L 179.5 171 Q 172.7 170.1 170 172 Q 168.8 175 172.5 174 L 174 178 L 165.5 178 L 164 179.5 L 169 181.5 Q 169.9 184.5 165.5 183 L 164 186.5 L 165 188.5 L 155 195.5 L 156.5 196 L 165.5 193 L 167 196 L 158 200.5 Q 157.1 203.5 161.5 202 L 163 204.5 L 161 211 L 177 210 Q 178.5 213.7 175.5 213 L 167 215 Q 165.7 218.3 170.5 217 Q 172 219.5 177.5 218 Q 178.7 215.7 183.5 217 L 191 221.5 L 189.5 224 L 184.5 226 L 166.5 227 L 164.5 226 L 153 230 L 153 232.5 L 144.5 241 L 138.5 245 L 137 241.5 L 139 237 L 143 234.5 Q 140.4 233.1 141 228.5 L 143 225 Q 137.8 227.1 139 222.5 L 143 221 L 147 201.5 Q 144 199.5 145 193.5 L 148 188.5 Q 146.2 182.2 149 180.5 L 149 178.5 L 150 174.5 Q 147.3 171.3 141.5 171 L 137.5 167 L 134.5 167 Q 133.3 169.3 128.5 168 L 127 169.5 L 127 177.5 L 124 184.5 L 124 188.5 L 126 191.5 L 125 195.5 L 126 198.5 L 124 206.5 Q 127.9 208.1 127 214.5 L 123 224.5 L 120 227.5 L 120 230.5 L 123 236.5 Q 121.8 239.3 116.5 238 L 110 233.5 L 103 222.5 L 88 206.5 L 88 202.5 L 83 196.5 L 83 191.5 L 85.5 190 L 96 203.5 L 97 209.5 L 100 214.5 L 108 222.5 L 108 224.5 L 114 232 L 116.5 233 L 118 229.5 L 115 224.5 L 114 215 L 117 213.5 L 117 203.5 L 115 198 L 120 198 L 120 196.5 L 118 191.5 L 117 181.5 L 109.5 172 L 105 170 L 104 167.5 L 106.5 166 L 117 173 Q 116.8 166.5 121.5 164 L 126 162.5 Q 125.3 158.3 119.5 159 L 117.5 160 L 113 153.5 L 113 150.5 L 109.5 147 L 107.5 146 L 96.5 146 Q 94.8 148.8 88.5 147 L 84.5 146 L 80 149.5 L 79 155 L 76 156.5 L 76 159.5 L 72 164.5 L 72 166.5 L 73.5 169 Q 67.8 168.3 67 172.5 L 65 179.5 L 67 182.5 L 65 184.5 L 64 191 L 68.5 191 L 71.5 194 Q 77 193 78 196.5 Q 78.5 202.4 83 204.5 L 84 209 L 87 210.5 L 87 212.5 L 93 219.5 L 93 225 L 86.5 221 L 83.5 221 L 76.5 224 L 78 221.5 L 81 211.5 L 74.5 203 L 68.5 204 L 61.5 199 L 58 199 L 56 195.5 L 56 192.5 L 57.5 190 L 54 189 L 55 182.5 L 53 179.5 Q 55.5 178 54 172.5 L 56 170.5 Q 54.1 167.3 48 169 Q 46.3 164.9 50.5 166 L 55.5 167 L 60 164.5 Q 60.9 161.5 56.5 163 Q 52.7 160.7 58 158.5 L 58 154 L 62 154 L 62 152.5 L 56 147.5 L 57.5 145 Q 60.5 145.7 59 142 L 64.5 142 L 66.5 141 L 68 141.5 L 66 137 Q 72.8 135.7 74.5 141 L 76.5 137 L 81.5 140 Q 84.3 138.8 82 137.5 L 78 131 L 91 139 Q 92 133.4 87.5 132 L 81 127.5 L 80 125.5 L 82 122.5 L 81 120 L 73 116.5 L 77.5 115 L 84 119 L 85 113.5 L 82 106.5 L 84.5 105 L 91.5 109 L 93.5 109 Q 96.5 109.9 95 105.5 L 98.5 104 L 103.5 105 L 107.5 108 L 109 104.5 L 107 100.5 Q 107.5 97.5 111.5 98 Q 115.8 99.8 113 101.5 Q 112.3 103.8 114.5 103 L 119 102 Q 117.9 99.3 120.5 100 L 125.5 97 Z M 146 109 L 147 111 Q 148 108 146 109 Z M 69 151 L 69 152 L 69 151 Z M 66 167 L 65 169 L 68 168 L 66 167 Z M 154 196 L 154 197 L 155 197 L 154 196 Z M 153 197 L 153 198 L 153 197 Z M 150 222 L 150 223 L 150 222 Z M 234 237 L 234 238 L 234 237 Z "/><path fill="#e85a5a"  stroke="none" opacity="1" d="M 170.5 147 L 170.5 148 L 170.5 147 Z "/><path fill="#e85a5a"  stroke="none" opacity="1" d="M 81.5 157 L 83 160.5 Q 80.3 162.8 80.5 168 L 79 160.5 L 81.5 157 Z "/><path fill="#e85a5a"  stroke="none" opacity="1" d="M 95 178 L 99 179.5 L 103 187.5 L 102 190 Q 98.2 190.8 97 187.5 L 97 182.5 Q 94.3 181.4 95 178 Z "/><path fill="#e85a5a"  stroke="none" opacity="1" d="M 89 185 Q 91.7 183.9 91 186.5 L 94.5 191 Q 98.5 190.5 99 193.5 Q 102.2 197 101 204 Q 97.3 205.5 98 202.5 Q 91.5 195.3 89 185 Z "/><path fill="#e85a5a"  stroke="none" opacity="1" d="M 194.5 218 L 202.5 226 L 204.5 226 L 207 225 L 208.5 228 L 211 229.5 L 213 232.5 L 211.5 233 L 207.5 229 L 206.5 230 L 203 231 L 201.5 228 L 193 220.5 L 194.5 218 Z "/><path fill="#e85a5a"  stroke="none" opacity="1" d="M 210.5 220 Q 214.8 219.3 215.5 222 Q 223 221 226 223 Q 224.9 225.7 227.5 225 L 239 229 L 251.5 247 Q 254.1 246.2 253 249.5 Q 249.7 251 251 256 L 244 255 L 242 265.5 L 244.5 267 L 254 261 Q 252.8 264 256.5 263 L 268 258.5 L 267 256.5 L 270.5 256 L 279 259 L 279 262 L 272.5 262 L 271.5 263 L 262.5 263 L 255 266.5 L 254 273.5 L 251.5 276 L 248.5 276 L 240 280.5 L 236.5 286 L 216.5 294 L 198.5 296 L 197.5 295 L 187.5 295 L 182.5 297 L 180 296 L 178.5 293 L 175.5 293 L 169.5 298 L 166.5 293 L 164.5 293 L 159.5 298 L 157 298 L 159 290.5 L 158 289.5 L 158 280 L 155 278.5 L 156 275.5 Q 152.6 272.7 154 266 L 150.5 268 L 147 268 Q 145.1 259.3 149.5 256 L 152.5 258 L 155.5 252 L 158.5 257 L 162.5 252 L 173.5 248 L 175 250.5 L 163 259.5 Q 158.4 262.4 158 269.5 L 164 273.5 L 169.5 282 Q 174.9 281.4 177 283 L 178.5 287 Q 185.7 286.3 188.5 290 L 205.5 291 L 209.5 289 L 225.5 287 L 235 278.5 L 238 269.5 Q 235.8 268.3 237 263.5 L 239 259.5 L 238.5 258 L 241 256.5 Q 242.3 249.3 237.5 248 L 237 249.5 L 239 252.5 L 236.5 254 L 232 250.5 L 228 243 L 231 242.5 Q 225.9 234.7 216 233 L 212.5 226 L 209 223.5 L 210.5 220 Z M 237 247 L 237 248 L 237 247 Z "/><path fill="#e85a5a"  stroke="none" opacity="1" d="M 311.5 224 Q 312.9 226.6 317.5 226 L 322.5 225 Q 324 227.5 329.5 226 L 332 225 Q 333.4 228.7 327.5 227 Q 325.5 229.8 321 229 Q 322.3 225.7 317.5 227 L 307.5 233 L 305.5 230 L 300.5 232 L 290 242.5 L 285.5 248 L 285 246.5 L 287 243.5 L 286 239.5 L 289.5 235 Q 292.1 231.1 299.5 232 L 311.5 224 Z "/><path fill="#e85a5a"  stroke="none" opacity="1" d="M 277 227 Q 282 226.2 284 229.5 L 279.5 240 L 275 242 L 274.5 253 Q 271.2 251.3 272 245.5 L 267.5 239 Q 265.3 239.8 266 237.5 L 262.5 233 L 271 237 Q 269.9 239.7 272.5 239 L 274 239.5 L 272 232.5 L 276 231 L 277 227 Z "/><path fill="#e85a5a"  stroke="none" opacity="1" d="M 94 228 L 96.5 228 L 102 233.5 L 102 236.5 L 107.5 244 L 119.5 249 L 121.5 248 L 126.5 249 L 131 252.5 L 133 257 L 136.5 258 L 139 255.5 Q 137.8 250.3 140.5 249 Q 143.9 248.1 142 253.5 L 143 257.5 L 142 262.5 L 145 272.5 L 144 277.5 L 145 280.5 L 144 283.5 L 147 299.5 L 146 301.5 Q 148.3 302.7 147 307.5 L 144.5 309 L 139 305.5 L 142 290.5 L 139 283.5 L 140 280.5 Q 136.8 279.2 138 273.5 L 131.5 265 L 125.5 266 Q 124.3 263.8 123 266.5 Q 123.2 275.8 128 280.5 L 130 293.5 L 133 296.5 L 133 300.5 L 135 305.5 L 143 319.5 L 143 326 L 139 324.5 L 137.5 319 L 136 320.5 L 136 334.5 Q 137.4 342.1 142.5 346 Q 147.3 344.8 148.5 347 L 151 346 L 146.5 353 L 141.5 353 L 135.5 349 L 133 349 L 134 343.5 L 131 339.5 L 132 336.5 L 128.5 329 Q 124.1 330.5 125 327.5 L 128 326 L 129 312 L 125.5 313 L 124 311.5 L 124 299.5 Q 126.2 298.2 125 293.5 L 125 291.5 L 122.5 288 L 120 286.5 L 121 282.5 L 118.5 279 Q 116.3 279.8 117 277.5 L 115 271.5 L 117 261.5 L 118.5 260 Q 122.3 261 121 258 Q 116.5 258.8 114.5 256 L 109.5 256 L 106 258.5 L 103.5 262 Q 97.8 263.8 100 257.5 L 103 253.5 L 103 250.5 L 100 246 L 94 247 L 98 237.5 Q 93.2 234.7 94 228 Z "/><path fill="#e85a5a"  stroke="none" opacity="1" d="M 121.5 240 L 122.5 242 L 120 241.5 L 121.5 240 Z "/><path fill="#e85a5a"  stroke="none" opacity="1" d="M 207.5 246 Q 212.1 245.4 213.5 248 L 218.5 248 L 223 251.5 L 223 253 L 219 253 L 219 254.5 Q 216.8 255.8 218 260.5 L 216.5 262 L 213 263 L 211.5 266 L 204.5 267 L 199.5 266 Q 198 268.5 196.5 265 L 194 263.5 Q 194.8 259.8 192.5 259 Q 190.7 261.8 189 257.5 L 188 253.5 L 192.5 247 L 206.5 247 L 207.5 246 Z M 210 253 L 208 255 Q 209 258 213 257 L 214 255 Q 213 252 210 253 Z "/><path fill="#e85a5a"  stroke="none" opacity="1" d="M 284.5 250 L 285 252.5 L 283 258 Q 280.3 259.1 281 256.5 L 284.5 250 Z "/><path fill="#e85a5a"  stroke="none" opacity="1" d="M 261.5 256 Q 265.3 255 264 258 L 259 257.5 L 261.5 256 Z "/><path fill="#e85a5a"  stroke="none" opacity="1" d="M 182.5 262 L 189 265.5 Q 189.9 268.5 185.5 267 L 182.5 262 Z "/><path fill="#e85a5a"  stroke="none" opacity="1" d="M 262.5 277 Q 266.7 275.7 265 280.5 L 267 283.5 L 266 285.5 L 267 288.5 L 265 294.5 L 267.5 296 L 270 295 Q 270.7 299.2 267 300.5 L 267 304 L 270 305.5 L 274 314.5 L 273 318 Q 277.9 317.9 280 321.5 L 274 330.5 L 276.5 332 L 283.5 330 L 294.5 322 L 301.5 321 L 307.5 326 Q 310 325 309 320.5 L 308 316 L 315 315 L 315 319 L 313.5 319 L 311 322.5 Q 312.3 325.3 313.5 323 Q 316.8 321.9 316 324.5 L 311 328.5 L 311 330.5 L 306.5 335 L 303.5 333 L 289.5 333 L 284.5 336 L 274 336 L 272 339.5 L 271 346.5 Q 273.3 347.8 272 352.5 L 271 357.5 L 271 359.5 L 273 369 L 267 369 L 267 364.5 L 268 362.5 L 265.5 359 L 251.5 352 L 244.5 352 L 238.5 349 L 232 348 L 232.5 345 L 241.5 345 Q 246.1 341.9 254 343 L 250 334 L 260.5 335 Q 263.5 333.5 260.5 332 L 255.5 333 L 246.5 329 L 244.5 329 L 240 326.5 L 239 322 L 236 320.5 L 244.5 307 L 249 305 L 252 296.5 L 254.5 294 L 258 291.5 L 260 286.5 L 258 282.5 L 260.5 278 L 262.5 277 Z M 261 311 Q 258 315 250 314 L 243 320 L 245 323 Q 249 324 247 320 L 250 319 L 256 319 L 264 322 L 262 315 Q 263 310 261 311 Z M 258 353 L 258 355 L 261 356 L 263 355 L 263 353 L 258 353 Z "/><path fill="#e85a5a"  stroke="none" opacity="1" d="M 290 309 Q 294.7 308 296 311.5 L 291.5 313 L 290 309 Z "/><path fill="#e85a5a"  stroke="none" opacity="1" d="M 304 312 Q 307 311 306 314 Q 303 315 304 312 Z "/><path fill="#e85a5a"  stroke="none" opacity="1" d="M 226.5 355 L 233 356.5 L 222 359 Q 220.3 354.5 225.5 356 L 226.5 355 Z "/></svg>