<svg xmlns="http://www.w3.org/2000/svg" version="1.1" width="440.0689661069092" height="516.7931043100982" style=""><rect id="backgroundrect" width="100%" height="100%" x="0" y="0" fill="none" stroke="none" class="" style=""/><g class="currentLayer" style=""><title>Layer 1</title><path fill="#000000" stroke="none" opacity="1" d="M 4.5 92 L 6 92.5 L 4.5 93 L 4.5 92 Z " id="svg_1"/><path fill="#ffffff" stroke="#e7e767" opacity="1" d="M 125.5 97 L 128 98.5 L 128.5 102 L 130.5 101 Q 131 104.5 135.5 104 L 139.5 102 Q 137.8 104 141.5 106 L 144 107.5 L 147.5 114 L 148 112.5 L 148 110.5 L 144 104 L 141 102.5 L 145.5 102 L 151.5 110 L 153 107.5 L 153.5 99 Q 157.1 105.4 157 115.5 L 154.5 119 L 150 121.5 L 148.5 124 Q 144.8 125.3 146 121.5 L 143 114 L 135.5 114 L 135 112.5 Q 131 111.1 132 106 L 127 102.5 L 125.5 100 Q 123.3 99.3 124 101.5 L 130 107.5 L 130 109.5 L 127 111.5 L 127.5 110 L 124.5 111 L 121 110 L 119.5 113 Q 113.4 111.8 114 114.5 L 118 117.5 L 114 125.5 Q 116.3 126.8 113.5 128 L 107.5 124 L 103.5 125 L 97 124 L 99 130.5 L 98 133.5 L 100 133.5 Q 97.3 135.3 101.5 137 L 104.5 137 L 112 142 L 113 149 L 117 150.5 L 115 151.5 L 128 154.5 L 127 157 L 131.5 157 L 134.5 159 L 141 160 L 141.5 154 L 143 159 Q 147.3 160 148.5 157 Q 150.3 159.8 156.5 158 L 165 156.5 Q 157.4 157 154 155 L 154.5 153 L 166.5 153 L 169.5 154 L 174.5 153 L 176.5 154 L 177.5 152 Q 171.5 153.5 170 150.5 L 176.5 150 L 178.5 151 L 180 148 L 167.5 148 L 166.5 149 L 167.5 147 L 184.5 146 Q 186 148.5 191.5 147 L 195.5 147 L 197.5 145 L 207.5 148 L 207.5 147 L 198 141.5 L 201.5 140 L 207 143 Q 205.9 145.7 208.5 145 L 211.5 146 L 207 140.5 L 208.5 138 L 213.5 140 L 216 139 Q 214.7 142.7 220.5 141 Q 225.9 146.6 236.5 147 L 233.5 143 L 231 141.5 L 228 137.5 L 231.5 137 L 235 138 Q 236.1 140.7 233.5 140 L 234.5 142 L 243 148.5 L 237.5 149 L 234.5 148 L 234.5 150 Q 228.3 150.6 226 148 L 225.5 146 L 218.5 146 L 222 150.5 L 220.5 152 L 215.5 149 L 202.5 152 L 187.5 152 Q 186.8 149.3 182.5 150 L 180 151 L 180 155 L 188.5 155 L 191 156 L 189.5 159 L 181.5 157 L 182 158.5 L 181 160.5 L 182 163 L 175.5 164 L 174 163.5 Q 173.3 165.8 175.5 165 L 180.5 168 Q 185.9 167.4 188 169 Q 189.1 171.7 186.5 171 Q 184.8 168.3 178.5 170 L 167.5 172 L 166 173.5 Q 165.3 175.8 167.5 175 L 170.5 174 L 174 175.5 Q 175.1 178.8 172.5 178 L 171 178.5 L 171.5 177 L 167.5 177 L 162 179 Q 160.7 182.3 165.5 181 L 167.5 180 L 170 181 Q 171.4 185 164.5 183 L 163 186.5 L 168 188.5 L 163.5 189 L 153.5 196 L 149 197.5 L 152.5 199 L 158.5 195 L 166.5 193 Q 169.5 194.5 166.5 196 L 156 200 Q 154.9 202.7 157.5 202 L 159.5 203 L 163 202 L 161.5 206 L 160 206.5 L 162 207.5 Q 156.8 209.8 160.5 212 L 163.5 211 L 165.5 212 L 168.5 211 L 177.5 210 L 177 211.5 Q 177.6 214.3 171.5 213 L 165 215 L 165.5 218 L 178.5 214 L 177.5 216 L 171.5 217 L 170 218.5 Q 169.3 220.8 171.5 220 Q 175.5 217 182.5 217 L 191 221 L 189.5 224 L 186 224 Q 187.1 226.7 184.5 226 L 180.5 225 L 180.5 227 L 173.5 224 L 173 226 L 177 226.5 L 174.5 228 L 164.5 226 L 152 230 L 153 232.5 L 138.5 246 L 137 241.5 Q 139.8 240.4 139 237 Q 142.8 237.8 144 234.5 L 143.5 232 L 141 233.5 L 142 229.5 Q 139.8 228.3 142.5 227 Q 144.8 227.8 144 225.5 Q 142.8 222.7 141.5 225 Q 138.2 226.1 139 223.5 L 140 221 L 144 222 L 143 219.5 L 146 211.5 L 146 209.5 L 147 200.5 L 145 194.5 L 149 187.5 L 149 177.5 L 150.5 176 L 152 175.5 L 149 173.5 Q 149.9 170.1 144.5 172 L 140 169.5 L 138.5 167 L 126 168 Q 127.7 170.4 127 176.5 L 123 188.5 L 127 190.5 L 124 192 L 126 197.5 L 124 199.5 L 124 208 Q 126.7 206.9 126 209.5 L 126 211.5 L 127 213.5 L 123.5 222 L 121 221 L 123 225 L 120 226.5 Q 121.5 230.9 118.5 230 Q 114.2 224.3 114 214.5 L 116.5 216 L 118 214.5 L 117 207 L 120 206.5 L 117 204.5 L 115 197.5 L 117.5 199 Q 121.9 200.5 121 197.5 L 119 195.5 Q 120.5 190 118 188.5 L 119 186.5 L 117 184.5 L 115 177.5 L 110.5 172 L 104 167.5 Q 103.2 164.9 106.5 166 L 116.5 175 L 118 170.5 Q 115.5 169 119 167.5 Q 118.3 165.3 120.5 166 L 124 167 Q 125.3 163.7 120.5 165 L 120.5 164 L 129.5 164 L 131 162.5 L 124 161 Q 125.4 157 118.5 159 L 116.5 160 L 114 156.5 L 116 156 Q 114.9 158.7 117.5 158 L 118.5 156 L 113 153.5 L 113 150.5 L 108.5 146 L 99.5 146 L 98.5 145 Q 96.5 148 90.5 147 L 89.5 146 L 83 146 Q 84.1 149.3 80 148 L 80 152 L 77.5 152 L 78.5 154 L 81 155.5 L 79.5 156 L 75 155 L 75 160.5 L 70.5 166 L 66.5 166 L 63 168 Q 64.1 170.7 61.5 170 L 60.5 172 L 66.5 170 L 69.5 167 L 73.5 167 L 77 169.5 L 74.5 170 L 71.5 168 Q 65 171.5 64 180.5 L 67 181.5 L 64 186 L 66 186.5 L 62 190.5 L 63.5 192 L 70 191 L 69 193.5 L 75.5 194 L 78 196.5 Q 76.1 201.9 79.5 201 L 85.5 210 L 87 210 L 87 214 L 88.5 214 L 92 220 L 94 220.5 L 93 225 L 90 223.5 Q 90.7 220.5 87 222 L 87 220 L 84.5 220 L 74.5 225 L 74.5 224 L 77.5 222 L 79 220.5 L 81 210 Q 78.3 211.1 79 208.5 L 74.5 202 L 68.5 205 L 67.5 201 L 64 202 Q 65.1 199.3 62.5 200 L 59.5 198 L 57.5 199 L 58.5 196 L 56.5 195 L 55 195.5 L 57 191 L 61 189.5 L 55.5 189 L 54 189.5 L 55 187.5 L 54 185 L 56 185 L 56 183 Q 58.7 184.1 58 181.5 L 56.5 182 L 54 181.5 L 54 172 L 56 172 Q 54.9 169.3 57.5 170 L 57.5 169 L 47.5 169 L 47 167.5 L 50.5 166 L 50.5 168 L 63 165 Q 64.4 161 57.5 163 L 55 162 Q 53.9 159.3 56.5 160 L 59 158.5 L 58 154 L 63 155 L 61.5 151 L 56 147.5 L 57.5 145 L 61.5 148 L 62 146.5 Q 58.5 146 59 141.5 L 61.5 143 L 65.5 141 L 69 143 L 67.5 139 L 65 137.5 L 65.5 136 L 69.5 138 Q 71.2 135.3 73 139.5 L 75.5 143 L 76 139.5 L 75 137 Q 79.2 136.2 80.5 140 L 83.5 140 L 83 138.5 L 78 131 L 90.5 140 L 92 136.5 L 89.5 133 Q 82.6 131.4 80 125.5 L 82 121.5 Q 80.8 118.3 77 119 Q 78.3 115.7 73.5 117 L 72 117.5 Q 71.1 114.1 76.5 116 L 78.5 116 L 85.5 121 L 84 118.5 L 86 114.5 L 82 106.5 L 85 105 L 86.5 108 L 89 106.5 L 91.5 115 L 92 111.5 L 91 109.5 Q 92.8 106.3 94.5 110 Q 96.8 110.8 96 108.5 L 95 105 Q 97.7 106.1 97 103.5 L 102 106.5 L 101 104.5 L 103.5 103 L 103 104.5 L 105.5 108 Q 111.3 110.1 110 105.5 L 107 100.5 L 108 98 L 114 99 L 112.5 102 Q 110.3 101.3 111 103.5 Q 113.2 107.2 115.5 102 L 119.5 104 L 119 102.5 Q 117.9 99.2 120.5 100 L 125.5 97 Z M 124 99 L 124 100 L 124 99 Z M 110 109 L 110 111 Q 112 115 114 112 L 110 109 Z M 101 111 L 101 112 L 101 111 Z M 81 133 L 81 134 L 81 133 Z M 215 144 L 215 145 L 216 145 L 215 144 Z M 68 149 Q 64 151 69 153 L 72 153 L 69 151 Q 70 148 68 149 Z M 67 154 L 64 157 L 67 157 L 67 154 Z M 177 159 L 177 160 L 179 160 L 177 159 Z M 166 166 L 166 167 L 167 167 L 166 166 Z M 156 167 L 156 169 L 159 168 L 156 167 Z M 60 172 L 60 173 L 60 172 Z M 57 173 L 57 174 L 57 173 Z M 59 173 L 59 174 L 59 173 Z M 158 173 L 157 175 L 158 175 L 158 173 Z M 63 174 L 61 177 L 63 176 L 63 174 Z M 122 174 L 121 176 L 122 176 L 122 174 Z M 163 174 L 161 175 L 161 176 L 164 175 L 163 174 Z M 123 177 L 123 178 L 123 177 Z M 156 181 L 155 184 L 156 184 L 156 181 Z M 122 182 L 121 185 L 122 185 L 122 182 Z M 151 200 L 151 201 L 151 200 Z M 156 212 L 156 213 L 156 212 Z M 163 217 L 163 218 L 164 218 L 163 217 Z M 150 220 L 148 222 Q 147 226 151 224 L 151 220 L 150 220 Z M 178 220 L 180 222 L 182 222 L 178 220 Z M 184 220 L 183 222 L 186 223 L 187 223 L 184 220 Z M 179 224 L 179 225 L 180 225 L 179 224 Z M 224 226 L 224 227 L 224 226 Z M 221 227 Q 220 230 223 229 Q 224 226 221 227 Z M 226 227 Q 224 230 227 229 L 226 227 Z M 232 228 L 232 229 L 236 231 L 236 230 Q 235 227 232 228 Z M 229 230 L 229 231 L 230 231 L 229 230 Z M 231 231 L 231 232 L 232 232 L 231 231 Z M 220 232 L 220 233 L 220 232 Z M 225 232 L 227 235 L 231 237 Q 233 236 232 239 L 237 240 L 234 236 Q 230 237 231 234 L 225 232 Z M 236 233 L 236 234 L 236 233 Z M 144 238 L 144 239 L 144 238 Z M 139 240 L 140 242 L 142 241 L 139 240 Z " id="svg_2" class="" fill-opacity="1" stroke-opacity="1" marker-start="url(#SquareM)" marker-end="url(#Tail)"/><path fill="#ffffff" stroke="#e7e767" opacity="1" d="M125.5,97 L128,98.5 L128.5,102 L130.5,101 Q131,104.5 135.5,104 L139.5,102 Q137.8,104 141.5,106 L144,107.5 L147.5,114 L148,112.5 L148,110.5 L144,104 L141,102.5 L145.5,102 L151.5,110 L153,107.5 L153.5,99 Q157.1,105.4 157,115.5 L154.5,119 L150,121.5 L148.5,124 Q144.8,125.3 146,121.5 L143,114 L135.5,114 L135,112.5 Q131,111.1 132,106 L127,102.5 L125.5,100 Q123.3,99.3 124,101.5 L130,107.5 L130,109.5 L127,111.5 L127.5,110 L124.5,111 L121,110 L119.5,113 Q113.4,111.8 114,114.5 L118,117.5 L114,125.5 Q116.3,126.8 113.5,128 L107.5,124 L103.5,125 L97,124 L99,130.5 L98,133.5 L100,133.5 Q97.3,135.3 101.5,137 L104.5,137 L112,142 L113,149 L117,150.5 L115,151.5 L128,154.5 L127,157 L131.5,157 L134.5,159 L141,160 L141.5,154 L143,159 Q147.3,160 148.5,157 Q150.3,159.8 156.5,158 L165,156.5 Q157.4,157 154,155 L154.5,153 L166.5,153 L169.5,154 L174.5,153 L176.5,154 L177.5,152 Q171.5,153.5 170,150.5 L176.5,150 L178.5,151 L180,148 L167.5,148 L166.5,149 L167.5,147 L184.5,146 Q186,148.5 191.5,147 L195.5,147 L197.5,145 L207.5,148 L207.5,147 L198,141.5 L201.5,140 L207,143 Q205.9,145.7 208.5,145 L211.5,146 L207,140.5 L208.5,138 L213.5,140 L216,139 Q214.7,142.7 220.5,141 Q225.9,146.6 236.5,147 L233.5,143 L231,141.5 L228,137.5 L231.5,137 L235,138 Q236.1,140.7 233.5,140 L234.5,142 L243,148.5 L237.5,149 L234.5,148 L234.5,150 Q228.3,150.6 226,148 L225.5,146 L218.5,146 L222,150.5 L220.5,152 L215.5,149 L202.5,152 L187.5,152 Q186.8,149.3 182.5,150 L180,151 L180,155 L188.5,155 L191,156 L189.5,159 L181.5,157 L182,158.5 L181,160.5 L182,163 L175.5,164 L174,163.5 Q173.3,165.8 175.5,165 L180.5,168 Q185.9,167.4 188,169 Q189.1,171.7 186.5,171 Q184.8,168.3 178.5,170 L167.5,172 L166,173.5 Q165.3,175.8 167.5,175 L170.5,174 L174,175.5 Q175.1,178.8 172.5,178 L171,178.5 L171.5,177 L167.5,177 L162,179 Q160.7,182.3 165.5,181 L167.5,180 L170,181 Q171.4,185 164.5,183 L163,186.5 L168,188.5 L163.5,189 L153.5,196 L149,197.5 L152.5,199 L158.5,195 L166.5,193 Q169.5,194.5 166.5,196 L156,200 Q154.9,202.7 157.5,202 L159.5,203 L163,202 L161.5,206 L160,206.5 L162,207.5 Q156.8,209.8 160.5,212 L163.5,211 L165.5,212 L168.5,211 L177.5,210 L177,211.5 Q177.6,214.3 171.5,213 L165,215 L165.5,218 L178.5,214 L177.5,216 L171.5,217 L170,218.5 Q169.3,220.8 171.5,220 Q175.5,217 182.5,217 L191,221 L189.5,224 L186,224 Q187.1,226.7 184.5,226 L180.5,225 L180.5,227 L173.5,224 L173,226 L177,226.5 L174.5,228 L164.5,226 L152,230 L153,232.5 L138.5,246 L137,241.5 Q139.8,240.4 139,237 Q142.8,237.8 144,234.5 L143.5,232 L141,233.5 L142,229.5 Q139.8,228.3 142.5,227 Q144.8,227.8 144,225.5 Q142.8,222.7 141.5,225 Q138.2,226.1 139,223.5 L140,221 L144,222 L143,219.5 L146,211.5 L146,209.5 L147,200.5 L145,194.5 L149,187.5 L149,177.5 L150.5,176 L152,175.5 L149,173.5 Q149.9,170.1 144.5,172 L140,169.5 L138.5,167 L126,168 Q127.7,170.4 127,176.5 L123,188.5 L127,190.5 L124,192 L126,197.5 L124,199.5 L124,208 Q126.7,206.9 126,209.5 L126,211.5 L127,213.5 L123.5,222 L121,221 L123,225 L120,226.5 Q121.5,230.9 118.5,230 Q114.2,224.3 114,214.5 L116.5,216 L118,214.5 L117,207 L120,206.5 L117,204.5 L115,197.5 L117.5,199 Q121.9,200.5 121,197.5 L119,195.5 Q120.5,190 118,188.5 L119,186.5 L117,184.5 L115,177.5 L110.5,172 L104,167.5 Q103.2,164.9 106.5,166 L116.5,175 L118,170.5 Q115.5,169 119,167.5 Q118.3,165.3 120.5,166 L124,167 Q125.3,163.7 120.5,165 L120.5,164 L129.5,164 L131,162.5 L124,161 Q125.4,157 118.5,159 L116.5,160 L114,156.5 L116,156 Q114.9,158.7 117.5,158 L118.5,156 L113,153.5 L113,150.5 L108.5,146 L99.5,146 L98.5,145 Q96.5,148 90.5,147 L89.5,146 L83,146 Q84.1,149.3 80,148 L80,152 L77.5,152 L78.5,154 L81,155.5 L79.5,156 L75,155 L75,160.5 L70.5,166 L66.5,166 L63,168 Q64.1,170.7 61.5,170 L60.5,172 L66.5,170 L69.5,167 L73.5,167 L77,169.5 L74.5,170 L71.5,168 Q65,171.5 64,180.5 L67,181.5 L64,186 L66,186.5 L62,190.5 L63.5,192 L70,191 L69,193.5 L75.5,194 L78,196.5 Q76.1,201.9 79.5,201 L85.5,210 L87,210 L87,214 L88.5,214 L92,220 L94,220.5 L93,225 L90,223.5 Q90.7,220.5 87,222 L87,220 L84.5,220 L74.5,225 L74.5,224 L77.5,222 L79,220.5 L81,210 Q78.3,211.1 79,208.5 L74.5,202 L68.5,205 L67.5,201 L64,202 Q65.1,199.3 62.5,200 L59.5,198 L57.5,199 L58.5,196 L56.5,195 L55,195.5 L57,191 L61,189.5 L55.5,189 L54,189.5 L55,187.5 L54,185 L56,185 L56,183 Q58.7,184.1 58,181.5 L56.5,182 L54,181.5 L54,172 L56,172 Q54.9,169.3 57.5,170 L57.5,169 L47.5,169 L47,167.5 L50.5,166 L50.5,168 L63,165 Q64.4,161 57.5,163 L55,162 Q53.9,159.3 56.5,160 L59,158.5 L58,154 L63,155 L61.5,151 L56,147.5 L57.5,145 L61.5,148 L62,146.5 Q58.5,146 59,141.5 L61.5,143 L65.5,141 L69,143 L67.5,139 L65,137.5 L65.5,136 L69.5,138 Q71.2,135.3 73,139.5 L75.5,143 L76,139.5 L75,137 Q79.2,136.2 80.5,140 L83.5,140 L83,138.5 L78,131 L90.5,140 L92,136.5 L89.5,133 Q82.6,131.4 80,125.5 L82,121.5 Q80.8,118.3 77,119 Q78.3,115.7 73.5,117 L72,117.5 Q71.1,114.1 76.5,116 L78.5,116 L85.5,121 L84,118.5 L86,114.5 L82,106.5 L85,105 L86.5,108 L89,106.5 L91.5,115 L92,111.5 L91,109.5 Q92.8,106.3 94.5,110 Q96.8,110.8 96,108.5 L95,105 Q97.7,106.1 97,103.5 L102,106.5 L101,104.5 L103.5,103 L103,104.5 L105.5,108 Q111.3,110.1 110,105.5 L107,100.5 L108,98 L114,99 L112.5,102 Q110.3,101.3 111,103.5 Q113.2,107.2 115.5,102 L119.5,104 L119,102.5 Q117.9,99.2 120.5,100 L125.5,97 zM124,99 L124,100 L124,99 zM110,109 L110,111 Q112,115 114,112 L110,109 zM101,111 L101,112 L101,111 zM81,133 L81,134 L81,133 zM215,144 L215,145 L216,145 L215,144 zM68,149 Q64,151 69,153 L72,153 L69,151 Q70,148 68,149 zM67,154 L64,157 L67,157 L67,154 zM177,159 L177,160 L179,160 L177,159 zM166,166 L166,167 L167,167 L166,166 zM156,167 L156,169 L159,168 L156,167 zM60,172 L60,173 L60,172 zM57,173 L57,174 L57,173 zM59,173 L59,174 L59,173 zM158,173 L157,175 L158,175 L158,173 zM63,174 L61,177 L63,176 L63,174 zM122,174 L121,176 L122,176 L122,174 zM163,174 L161,175 L161,176 L164,175 L163,174 zM123,177 L123,178 L123,177 zM156,181 L155,184 L156,184 L156,181 zM122,182 L121,185 L122,185 L122,182 zM151,200 L151,201 L151,200 zM156,212 L156,213 L156,212 zM163,217 L163,218 L164,218 L163,217 zM150,220 L148,222 Q147,226 151,224 L151,220 L150,220 zM178,220 L180,222 L182,222 L178,220 zM184,220 L183,222 L186,223 L187,223 L184,220 zM179,224 L179,225 L180,225 L179,224 zM224,226 L224,227 L224,226 zM221,227 Q220,230 223,229 Q224,226 221,227 zM226,227 Q224,230 227,229 L226,227 zM232,228 L232,229 L236,231 L236,230 Q235,227 232,228 zM229,230 L229,231 L230,231 L229,230 zM231,231 L231,232 L232,232 L231,231 zM220,232 L220,233 L220,232 zM225,232 L227,235 L231,237 Q233,236 232,239 L237,240 L234,236 Q230,237 231,234 L225,232 zM236,233 L236,234 L236,233 zM144,238 L144,239 L144,238 zM139,240 L140,242 L142,241 L139,240 z" class="" fill-opacity="1" stroke-opacity="1" id="svg_76" marker-start="url(#SquareM)" marker-end="url(#Tail)"/><path fill="#ffffff" stroke="#e7e767" opacity="1" d="M175.5,97 L174,99.5 L173.5,101 L173,98 L175.5,97 z" class="" fill-opacity="1" stroke-opacity="1" id="svg_77" marker-start="url(#SquareM)" marker-end="url(#Tail)"/><path fill="#ffffff" stroke="#e7e767" opacity="1" d="M81,157 Q84.7,155.8 83,161 L81,161.5 L81,169 L78.5,169 L78.5,168 Q81.3,168.6 80,162.5 L79,160.5 L81,157 z" class="" fill-opacity="1" stroke-opacity="1" id="svg_78" marker-start="url(#SquareM)" marker-end="url(#Tail)"/><path fill="#ffffff" stroke="#e7e767" opacity="1" d="M117.5,161 L120,162.5 L118.5,163 L117.5,161 z" class="" fill-opacity="1" stroke-opacity="1" id="svg_79" marker-start="url(#SquareM)" marker-end="url(#Tail)"/><path fill="#ffffff" stroke="#e7e767" opacity="1" d="M95,177 L98,178.5 L103,187.5 L102,190 L98,188.5 Q98.7,185.9 96,187 L96,185 L99,183.5 L97,183 L95,177 z" class="" fill-opacity="1" stroke-opacity="1" id="svg_80" marker-start="url(#SquareM)" marker-end="url(#Tail)"/><path fill="#ffffff" stroke="#e7e767" opacity="1" d="M89.5,184 L94.5,191 L98,192.5 L101,198.5 L101,200.5 Q102.5,205.8 98,204 Q97.4,196.9 92,193.5 L92,190.5 L89,186.5 L89.5,184 z" class="" fill-opacity="1" stroke-opacity="1" id="svg_81" marker-start="url(#SquareM)" marker-end="url(#Tail)"/><path fill="#ffffff" stroke="#e7e767" opacity="1" d="M51.5,188 L51.5,189 L51.5,188 z" class="" fill-opacity="1" stroke-opacity="1" id="svg_82" marker-start="url(#SquareM)" marker-end="url(#Tail)"/><path fill="#ffffff" stroke="#e7e767" opacity="1" d="M85.5,190 Q87.8,189.3 87,191.5 L96,204.5 L97,209.5 L96,210.5 L100,214.5 Q99.3,216.8 101.5,216 L107,221.5 L108,225.5 L114,233 L119,232.5 L118.5,231 Q121.8,229.9 121,232.5 Q124.7,233.7 124,238 L120.5,237 L117.5,238 L113.5,237 L111,234.5 L100.5,219 L98,217.5 L88,205.5 L88,203.5 L89,201 Q85.2,202.5 86,199.5 Q81.5,197.8 83,191 L85.5,190 zM92,204 L91,206 L92,206 L92,204 zM94,206 Q92,209 95,208 L94,206 zM118,221 L118,222 L118,221 zM123,236 L123,237 L123,236 z" class="" fill-opacity="1" stroke-opacity="1" id="svg_83" marker-start="url(#SquareM)" marker-end="url(#Tail)"/><path fill="#ffffff" stroke="#e7e767" opacity="1" d="M112.5,195 L114,195.5 L112.5,196 L112.5,195 z" class="" fill-opacity="1" stroke-opacity="1" id="svg_84" marker-start="url(#SquareM)" marker-end="url(#Tail)"/><path fill="#ffffff" stroke="#e7e767" opacity="1" d="M125.5,200 L127,202.5 L125,201.5 L125.5,200 z" class="" fill-opacity="1" stroke-opacity="1" id="svg_85" marker-start="url(#SquareM)" marker-end="url(#Tail)"/><path fill="#ffffff" stroke="#e7e767" opacity="1" d="M165.5,206 L165.5,207 L165.5,206 z" class="" fill-opacity="1" stroke-opacity="1" id="svg_86" marker-start="url(#SquareM)" marker-end="url(#Tail)"/><path fill="#ffffff" stroke="#e7e767" opacity="1" d="M198.5,217 L202,219.5 L200.5,220 L198.5,217 z" class="" fill-opacity="1" stroke-opacity="1" id="svg_87" marker-start="url(#SquareM)" marker-end="url(#Tail)"/><path fill="#ffffff" stroke="#e7e767" opacity="1" d="M193,218 L196,219.5 L198.5,223 Q200.8,222.3 200,224.5 L204.5,227 L206.5,224 L207,228 Q210.8,227 212,229.5 L208.5,230 Q207.3,227.8 202.5,229 L199,226.5 L196.5,223 Q194.3,223.8 195,221.5 L193,218 z" class="" fill-opacity="1" stroke-opacity="1" id="svg_88" marker-start="url(#SquareM)" marker-end="url(#Tail)"/><path fill="#ffffff" stroke="#e7e767" opacity="1" d="M210.5,220 L216,222.5 L216.5,224 L217,222 L219.5,223 L221.5,222 L226,223 Q224.3,227.5 229.5,226 L231.5,226 Q239.4,227.1 242,233.5 L253,250 L250,250.5 L251,256 L245.5,254 L243,255 L243,260 L241,260 L241,253.5 L242,252.5 L238,246 Q234.6,246.8 233.5,244 L233,245.5 L239,252.5 L239,255 Q236.3,256.1 237,253.5 L233,252 L229,246.5 Q231.3,245.3 228.5,244 L225,241.5 L226.5,242 L232.5,244 L227.5,238 L218.5,233 L209,232.5 L217,232 Q218.1,229.3 215.5,230 L213,228.5 L215,227.5 Q213.7,224.3 209,224.5 L211,223.5 Q207.3,221.8 210.5,220 z" class="" fill-opacity="1" stroke-opacity="1" id="svg_89" marker-start="url(#SquareM)" marker-end="url(#Tail)"/><path fill="#ffffff" stroke="#e7e767" opacity="1" d="M203.5,221 L203.5,222 L203.5,221 z" class="" fill-opacity="1" stroke-opacity="1" id="svg_90" marker-start="url(#SquareM)" marker-end="url(#Tail)"/><path fill="#ffffff" stroke="#e7e767" opacity="1" d="M312.5,224 L314,224.5 L313,227 L321.5,224 Q322.8,227.3 328.5,226 Q330,223.5 335.5,225 L335.5,226 L326.5,227 L324,228.5 L324.5,230 L320,228.5 L323,226.5 L319.5,226 L312,229.5 L312.5,231 L310.5,230 L305.5,234 L307,231.5 Q307.9,228.5 303.5,230 L290,241.5 L288,247 L285,248.5 L286,250.5 L282.5,259 L281,256.5 L283,254.5 L284,247.5 Q287.5,247 287,242.5 L287,240.5 L286,238.5 L288,238 L288,236 L291,236 Q289.9,233.3 292.5,234 L296.5,231 L297.5,233 L306.5,227 L310,227 Q308.9,224.3 311.5,225 L312.5,224 zM309,228 L309,229 L310,229 L309,228 zM308,229 L308,230 L308,229 z" class="" fill-opacity="1" stroke-opacity="1" id="svg_91" marker-start="url(#SquareM)" marker-end="url(#Tail)"/><path fill="#ffffff" stroke="#e7e767" opacity="1" d="M283.5,226 L283.5,227 L283.5,226 z" class="" fill-opacity="1" stroke-opacity="1" id="svg_92" marker-start="url(#SquareM)" marker-end="url(#Tail)"/><path fill="#ffffff" stroke="#e7e767" opacity="1" d="M277,227 L281,227 L281,236.5 Q278.5,238 282,239.5 L280.5,241 L276,229.5 L277,227 z" class="" fill-opacity="1" stroke-opacity="1" id="svg_93" marker-start="url(#SquareM)" marker-end="url(#Tail)"/><path fill="#ffffff" stroke="#e7e767" opacity="1" d="M94,228 Q97.7,226.5 97,229.5 L101,232.5 L101,235.5 L106,244 Q112.5,244.6 116.5,249 L124.5,249 L125.5,250 L126.5,249 L132,254.5 L133,258 Q137.6,259.3 139,256.5 L138,252.5 L142.5,247 L143,249.5 L142,254.5 L143,256.5 L142,257.5 L142,265.5 Q145.2,267.8 144,274.5 L143,276.5 L144,277.5 L144,285.5 L146,294.5 L145,297 L147,297.5 L145,303 L147,303 L147,308 L144.5,309 L139,305.5 Q142,302.5 141,295.5 L142.5,294 L144,293.5 L139,284.5 Q141.2,283.3 140,278.5 L138.5,279 L137,278.5 L139,274.5 L138,272 Q135.3,273.1 136,270.5 L130.5,263 Q128.3,262.3 129,264.5 L129.5,266 L122,265 L124,274.5 L128,282.5 L127,284.5 Q130.5,286 129,292.5 L133,297.5 L134,304.5 Q138.7,309.6 140,317 Q143,315.8 142,319.5 L143,320.5 L143,327 L139,324.5 L138,320.5 Q140.3,319.3 137.5,318 Q134.9,317.2 136,320.5 L135,323.5 L136,328.5 L135,331.5 L138,341.5 L141.5,346 L150.5,347 L152.5,346 L151.5,348 Q148.2,346.9 149,349.5 L146.5,353 Q139.5,353 136.5,349 L133,349 L134,342 Q130.2,343.5 131,340.5 L132,335.5 L128.5,328 L125.5,330 L125,327 L129,326 L128,320 Q130.7,321.1 130,318.5 L129,313.5 L130,311.5 Q127.7,307.7 125.5,313 Q123.3,313.8 124,311.5 L125,309.5 Q122.2,307.8 124,301.5 L126,297.5 Q123.3,295.8 125,289.5 L122.5,287 Q118.8,288.3 120,284.5 Q124,282.5 120,280.5 Q120.8,278.3 118.5,279 L116,276.5 L115,271 L117,270.5 L116,267.5 Q118.2,266.2 117,261.5 L118.5,260 L121.5,261 L122,259 L125,258.5 Q116.6,258.4 111.5,255 L107,256 L101.5,263 L100,260.5 L101,258.5 L100,257.5 L103.5,254 L105,253.5 L104,250 L101,248.5 L99.5,245 L94.5,248 L94,245.5 Q98,243.5 98,237.5 L94,228 zM104,246 L104,247 L104,246 zM123,252 L127,256 L128,256 L123,252 zM124,261 L124,262 L126,262 L124,261 zM129,262 L129,263 L129,262 zM133,324 L133,325 L133,324 z" class="" fill-opacity="1" stroke-opacity="1" id="svg_94" marker-start="url(#SquareM)" marker-end="url(#Tail)"/><path fill="#ffffff" stroke="#e7e767" opacity="1" d="M283.5,228 L284,232 L282,231.5 L283.5,228 z" class="" fill-opacity="1" stroke-opacity="1" id="svg_95" marker-start="url(#SquareM)" marker-end="url(#Tail)"/><path fill="#ffffff" stroke="#e7e767" opacity="1" d="M330.5,228 L340,229.5 L336.5,230 Q335.2,227.8 330.5,229 L330.5,228 z" class="" fill-opacity="1" stroke-opacity="1" id="svg_96" marker-start="url(#SquareM)" marker-end="url(#Tail)"/><path fill="#ffffff" stroke="#e7e767" opacity="1" d="M138.5,229 L138.5,230 L138.5,229 z" class="" fill-opacity="1" stroke-opacity="1" id="svg_97" marker-start="url(#SquareM)" marker-end="url(#Tail)"/><path fill="#ffffff" stroke="#e7e767" opacity="1" d="M198.5,230 L198.5,231 L198.5,230 z" class="" fill-opacity="1" stroke-opacity="1" id="svg_98" marker-start="url(#SquareM)" marker-end="url(#Tail)"/><path fill="#ffffff" stroke="#e7e767" opacity="1" d="M200.5,230 Q205,229 206,231.5 L203.5,232 L200.5,231 L200.5,230 z" class="" fill-opacity="1" stroke-opacity="1" id="svg_99" marker-start="url(#SquareM)" marker-end="url(#Tail)"/><path fill="#ffffff" stroke="#e7e767" opacity="1" d="M273.5,230 L278,238.5 L278,242.5 L277,242.5 L272,231.5 L273.5,230 z" class="" fill-opacity="1" stroke-opacity="1" id="svg_100" marker-start="url(#SquareM)" marker-end="url(#Tail)"/><path fill="#ffffff" stroke="#e7e767" opacity="1" d="M341.5,230 L341.5,231 L341.5,230 z" class="" fill-opacity="1" stroke-opacity="1" id="svg_101" marker-start="url(#SquareM)" marker-end="url(#Tail)"/><path fill="#ffffff" stroke="#e7e767" opacity="1" d="M171.5,232 Q174.1,231.3 173,234 L165.5,237 L166.5,235 L171.5,232 z" class="" fill-opacity="1" stroke-opacity="1" id="svg_102" marker-start="url(#SquareM)" marker-end="url(#Tail)"/><path fill="#ffffff" stroke="#e7e767" opacity="1" d="M343.5,232 L349,234.5 L347.5,235 L343.5,233 L343.5,232 z" class="" fill-opacity="1" stroke-opacity="1" id="svg_103" marker-start="url(#SquareM)" marker-end="url(#Tail)"/><path fill="#ffffff" stroke="#e7e767" opacity="1" d="M261.5,233 L264.5,233 L269.5,238 L270,235 L272,235.5 L270,238.5 L275,241.5 L274,245.5 Q276.8,247.3 275,253.5 L274,253.5 Q271.4,250.6 272,244.5 L269,239 Q265.3,240.5 266,237.5 L261.5,233 z" class="" fill-opacity="1" stroke-opacity="1" id="svg_104" marker-start="url(#SquareM)" marker-end="url(#Tail)"/><path fill="#ffffff" stroke="#e7e767" opacity="1" d="M303.5,234 L303.5,235 L303.5,234 z" class="" fill-opacity="1" stroke-opacity="1" id="svg_105" marker-start="url(#SquareM)" marker-end="url(#Tail)"/><path fill="#ffffff" stroke="#e7e767" opacity="1" d="M350.5,235 L354,237.5 L352.5,237 L350.5,235 z" class="" fill-opacity="1" stroke-opacity="1" id="svg_106" marker-start="url(#SquareM)" marker-end="url(#Tail)"/><path fill="#ffffff" stroke="#e7e767" opacity="1" d="M299.5,236 L297.5,239 L299.5,236 z" class="" fill-opacity="1" stroke-opacity="1" id="svg_107" marker-start="url(#SquareM)" marker-end="url(#Tail)"/><path fill="#ffffff" stroke="#e7e767" opacity="1" d="M163.5,238 L163.5,239 L163.5,238 z" class="" fill-opacity="1" stroke-opacity="1" id="svg_108" marker-start="url(#SquareM)" marker-end="url(#Tail)"/><path fill="#ffffff" stroke="#e7e767" opacity="1" d="M161.5,239 L162,240.5 L159,242.5 L161.5,239 z" class="" fill-opacity="1" stroke-opacity="1" id="svg_109" marker-start="url(#SquareM)" marker-end="url(#Tail)"/><path fill="#ffffff" stroke="#e7e767" opacity="1" d="M121.5,240 L124,241.5 L120,242 Q121,245 118,244 L119.5,241 L121.5,240 z" class="" fill-opacity="1" stroke-opacity="1" id="svg_110" marker-start="url(#SquareM)" marker-end="url(#Tail)"/><path fill="#ffffff" stroke="#e7e767" opacity="1" d="M158,244 L160,244.5 L156,251.5 L156,255.5 L160,258 L161,252 L164.5,253 L166.5,250 L169.5,251 L174.5,248 L175,249.5 L171.5,254 L163,258 L160.5,263 L158,264.5 L158,266.5 L160,269.5 L157,268.5 Q155.9,271.8 158.5,271 L161.5,272 L163,272 Q161.5,275.7 164.5,275 L168.5,282 L172.5,283 L174.5,283 L177,283 L177,288 L179.5,288 L181.5,287 L187.5,290 Q196.8,288.7 201.5,292 L210.5,289 L212.5,290 L220.5,287 L226.5,287 L235,279.5 Q236.1,272.1 241,268.5 L238.5,268 L237,268.5 L237,264.5 Q240,263.3 239,259 L237,258.5 Q238.5,255.5 240,258.5 Q238.8,262.3 242.5,261 L242.5,262 L240,262.5 L243,263.5 L240,264.5 L244.5,268 L252,263.5 L250,262.5 L261.5,256 L271.5,256 L277,257.5 L267.5,258 L264.5,257 L252,262.5 L254.5,264 L264.5,260 L279,259 L277.5,262 L275.5,263 Q274,259.5 272.5,262 L267.5,263 L265.5,262 L254,266.5 Q255.3,273.8 251.5,276 L248.5,275 L245,277 L244.5,279 L242.5,278 L238,285 L234.5,287 L233.5,285 L229.5,290 L227.5,289 Q225.8,291.8 220.5,291 L213.5,296 L214.5,294 L217,292.5 L214.5,292 L209.5,296 L209,294 L198,296 L197.5,294 L194.5,295 L192.5,294 Q191.2,296.2 186.5,295 L183.5,297 L181,296.5 L179,292 Q172.6,291 171,296.5 L170.5,298 L169.5,297 L167,298.5 L169,294 L164.5,292 L157.5,301 L158,299.5 L157,296.5 L159,288.5 L158,286.5 Q160.2,285.2 159,280.5 Q157.8,277.8 156.5,280 Q154.3,280.8 155,278.5 L156,276 L158,275.5 L155,275 L154,265.5 Q156.3,264.3 153.5,263 L153,266 L147,268 L148,263 L146,262.5 L150,259.5 L148,258.5 L148.5,256 L150.5,256 Q153.1,255.2 152,258.5 L151.5,260 L154,260 L154,254.5 L158,244 zM153,261 L152,263 L153,263 L153,261 zM244,271 L244,272 L244,271 zM249,272 L249,273 L249,272 zM242,276 L242,277 L242,276 zM240,278 L239,280 L240,280 L240,278 zM236,283 L236,284 L236,283 zM221,288 L221,289 L221,288 zM171,291 L171,292 L171,291 zM218,291 L218,292 L218,291 zM261,292 Q260,295 263,294 Q264,291 261,292 z" class="" fill-opacity="1" stroke-opacity="1" id="svg_111" marker-start="url(#SquareM)" marker-end="url(#Tail)"/><path fill="#ffffff" stroke="#e7e767" opacity="1" d="M143.5,245 L143.5,246 L143.5,245 z" class="" fill-opacity="1" stroke-opacity="1" id="svg_112" marker-start="url(#SquareM)" marker-end="url(#Tail)"/><path fill="#ffffff" stroke="#e7e767" opacity="1" d="M207.5,246 L215,247.5 L211,248.5 L217,250 Q218.6,252.1 218,257.5 L218,259.5 Q218.8,261.8 216.5,261 L211,264.5 L211.5,266 Q204,267.5 200.5,265 L198,266.5 Q198.8,264.3 196.5,265 L193,262.5 L195,262 L193.5,258 L192,258.5 L192.5,260 L189,257.5 L188,254.5 L189,251 Q191.7,252.1 191,249.5 L190.5,248 L194.5,247 Q196.3,249.8 202.5,248 L204.5,247 L209.5,248 L209.5,247 Q206.5,247.5 207.5,246 zM208,253 Q207,257 211,258 L214,257 Q216,256 214,255 L214,253 L208,253 zM193,254 L193,255 L194,255 L193,254 zM199,261 L199,264 L203,263 Q204,259 199,261 z" class="" fill-opacity="1" stroke-opacity="1" id="svg_113" marker-start="url(#SquareM)" marker-end="url(#Tail)"/><path fill="#ffffff" stroke="#e7e767" opacity="1" d="M119.5,247 L122,247.5 L119.5,248 L119.5,247 z" class="" fill-opacity="1" stroke-opacity="1" id="svg_114" marker-start="url(#SquareM)" marker-end="url(#Tail)"/><path fill="#ffffff" stroke="#e7e767" opacity="1" d="M216.5,248 Q222.1,248.5 224,252.5 L222.5,253 L218,251 Q219.1,248.3 216.5,249 L216.5,248 z" class="" fill-opacity="1" stroke-opacity="1" id="svg_115" marker-start="url(#SquareM)" marker-end="url(#Tail)"/><path fill="#ffffff" stroke="#e7e767" opacity="1" d="M219.5,253 L220.5,255 L219.5,253 z" class="" fill-opacity="1" stroke-opacity="1" id="svg_116" marker-start="url(#SquareM)" marker-end="url(#Tail)"/><path fill="#ffffff" stroke="#e7e767" opacity="1" d="M378.5,253 L378.5,254 L378.5,253 z" class="" fill-opacity="1" stroke-opacity="1" id="svg_117" marker-start="url(#SquareM)" marker-end="url(#Tail)"/><path fill="#ffffff" stroke="#e7e767" opacity="1" d="M225.5,255 L225.5,256 L225.5,255 z" class="" fill-opacity="1" stroke-opacity="1" id="svg_118" marker-start="url(#SquareM)" marker-end="url(#Tail)"/><path fill="#ffffff" stroke="#e7e767" opacity="1" d="M377.5,256 Q379.8,255.3 379,257.5 L377.5,256 z" class="" fill-opacity="1" stroke-opacity="1" id="svg_119" marker-start="url(#SquareM)" marker-end="url(#Tail)"/><path fill="#ffffff" stroke="#e7e767" opacity="1" d="M223.5,258 L223.5,259 L223.5,258 z" class="" fill-opacity="1" stroke-opacity="1" id="svg_120" marker-start="url(#SquareM)" marker-end="url(#Tail)"/><path fill="#ffffff" stroke="#e7e767" opacity="1" d="M181.5,261 L192,266.5 L186.5,267 L183,265 L181.5,261 z" class="" fill-opacity="1" stroke-opacity="1" id="svg_121" marker-start="url(#SquareM)" marker-end="url(#Tail)"/><path fill="#ffffff" stroke="#e7e767" opacity="1" d="M369.5,261 L372,261.5 L369.5,262 L369.5,261 z" class="" fill-opacity="1" stroke-opacity="1" id="svg_122" marker-start="url(#SquareM)" marker-end="url(#Tail)"/><path fill="#ffffff" stroke="#e7e767" opacity="1" d="M226.5,262 L226.5,263 L226.5,262 z" class="" fill-opacity="1" stroke-opacity="1" id="svg_123" marker-start="url(#SquareM)" marker-end="url(#Tail)"/><path fill="#ffffff" stroke="#e7e767" opacity="1" d="M224.5,263 L224.5,264 L224.5,263 z" class="" fill-opacity="1" stroke-opacity="1" id="svg_124" marker-start="url(#SquareM)" marker-end="url(#Tail)"/><path fill="#ffffff" stroke="#e7e767" opacity="1" d="M280.5,263 L280.5,264 L280.5,263 z" class="" fill-opacity="1" stroke-opacity="1" id="svg_125" marker-start="url(#SquareM)" marker-end="url(#Tail)"/><path fill="#ffffff" stroke="#e7e767" opacity="1" d="M228,264 L231,264.5 L228,266 L228,264 z" class="" fill-opacity="1" stroke-opacity="1" id="svg_126" marker-start="url(#SquareM)" marker-end="url(#Tail)"/><path fill="#ffffff" stroke="#e7e767" opacity="1" d="M193.5,267 L195,267.5 L193.5,268 L193.5,267 z" class="" fill-opacity="1" stroke-opacity="1" id="svg_127" marker-start="url(#SquareM)" marker-end="url(#Tail)"/><path fill="#ffffff" stroke="#e7e767" opacity="1" d="M217.5,267 L220,267.5 L217.5,268 L217.5,267 z" class="" fill-opacity="1" stroke-opacity="1" id="svg_128" marker-start="url(#SquareM)" marker-end="url(#Tail)"/><path fill="#ffffff" stroke="#e7e767" opacity="1" d="M262.5,277 L266,278.5 Q262.5,280 265,281.5 Q264.3,283.8 266.5,283 L269.5,281 L269.5,282 L265,285.5 L267,286.5 L264,294.5 L265.5,297 L271,295 L268.5,299 L266,300.5 L267,301.5 L265.5,304 L271,305.5 L269,306.5 L274,313.5 Q270.5,315 273,316.5 Q271.7,320.7 276.5,319 L281,321.5 L273.5,330 L271,330.5 Q272.5,333.5 278.5,332 L294,323.5 Q293.2,320.9 296.5,322 L300.5,321 L306,324.5 Q304.7,329.3 308,328 Q309.8,325.6 309,319.5 L306.5,315 L297,311 L297.5,309 L304.5,312 L306.5,311 L306.5,312 L305,312.5 L310,316 L312,319.5 L310.5,324 L312.5,325 L316.5,323 L316.5,324 Q313.9,323.3 315,326 L311,326 L311,327.5 L311,329.5 L309.5,332 L308,332.5 L308.5,334 L304,335 L305.5,332 L308,331.5 L304,330 L302.5,333 L299.5,332 L294.5,333 L292.5,332 L285,334 Q286.1,336.7 283.5,336 L280.5,335 L276.5,336 L274,335 L271,342.5 L271,347.5 L273,351.5 L270,354.5 L271,355.5 L272,360.5 L270,361.5 L272,362 L272.5,368 L274,367.5 L273.5,370 L271.5,368 Q270,371.5 268.5,369 Q265.1,369.9 267,364.5 L268,360.5 L266,360.5 Q267.3,356.3 262.5,358 L256.5,356 L254,353.5 L253.5,352 L245.5,352 Q244.3,354.2 239.5,353 L239.5,352 L245,351.5 L243.5,350 L232,348 Q233.1,345.3 230.5,346 L230.5,345 L237.5,346 L239.5,345 L243.5,345 Q246.1,345.7 245,343 L249.5,343 L253.5,344 L257,342.5 L252,340.5 L253,337 L250,335.5 Q249.1,332.5 253.5,334 L256.5,335 L259,334 Q257.3,338.1 261.5,337 L261.5,336 L260,335.5 L263,333.5 L261.5,331 Q256.9,330.4 255.5,333 L255,331 L251.5,331 L248.5,328 L243.5,327 L244.5,329 L247,330.5 L245.5,330 L239,325.5 L240,323.5 L238.5,321 L235.5,322 L237,319.5 Q238.4,313.4 243,310.5 L243,308 L249,304.5 L253,295 L258,292.5 L259,289.5 L258,287.5 L259,287.5 L259.5,289 L261,286.5 L258,284.5 L259,280.5 L262.5,277 zM258,309 L258,310 L261,310 L258,309 zM262,310 L256,314 L254,313 Q247,313 245,317 Q246,319 243,318 L242,321 Q241,323 244,322 L246,326 Q248,325 247,320 L262,321 L265,325 L267,325 L265,324 L263,318 L264,316 L263,315 Q259,313 264,311 L262,310 zM279,321 L279,322 L279,321 zM298,322 L298,323 L298,322 zM242,325 L242,326 L242,325 zM254,326 Q251,330 255,329 L254,326 zM262,328 L262,329 L262,328 zM271,329 L271,330 L271,329 zM268,333 L269,337 L272,335 L268,333 zM269,338 L267,340 L269,340 L269,338 zM260,341 L260,342 L260,341 zM268,344 L267,346 Q269,349 270,346 L268,344 zM248,345 L248,346 L249,346 L248,345 zM250,346 L247,348 Q249,350 254,349 L254,347 L250,348 L250,346 zM260,346 L260,347 L260,346 zM267,348 L267,350 L270,351 L271,351 L267,348 zM265,350 L265,352 Q264,354 267,353 L266,352 Q267,349 265,350 zM256,352 Q256,356 264,356 L263,352 L260,353 L256,352 zM269,364 L269,365 L269,364 zM270,366 L269,368 L270,368 L270,366 z" class="" fill-opacity="1" stroke-opacity="1" id="svg_129" marker-start="url(#SquareM)" marker-end="url(#Tail)"/><path fill="#ffffff" stroke="#e7e767" opacity="1" d="M284.5,282 L285.5,284 L284.5,282 z" class="" fill-opacity="1" stroke-opacity="1" id="svg_130" marker-start="url(#SquareM)" marker-end="url(#Tail)"/><path fill="#ffffff" stroke="#e7e767" opacity="1" d="M292.5,282 L292.5,283 L292.5,282 z" class="" fill-opacity="1" stroke-opacity="1" id="svg_131" marker-start="url(#SquareM)" marker-end="url(#Tail)"/><path fill="#ffffff" stroke="#e7e767" opacity="1" d="M332.5,285 L332.5,286 L332.5,285 z" class="" fill-opacity="1" stroke-opacity="1" id="svg_132" marker-start="url(#SquareM)" marker-end="url(#Tail)"/><path fill="#ffffff" stroke="#e7e767" opacity="1" d="M287.5,290 L287.5,291 L287.5,290 z" class="" fill-opacity="1" stroke-opacity="1" id="svg_133" marker-start="url(#SquareM)" marker-end="url(#Tail)"/><path fill="#ffffff" stroke="#e7e767" opacity="1" d="M290.5,302 L292,304.5 L290,303.5 L290.5,302 z" class="" fill-opacity="1" stroke-opacity="1" id="svg_134" marker-start="url(#SquareM)" marker-end="url(#Tail)"/><path fill="#ffffff" stroke="#e7e767" opacity="1" d="M189.5,304 L189.5,305 L189.5,304 z" class="" fill-opacity="1" stroke-opacity="1" id="svg_135" marker-start="url(#SquareM)" marker-end="url(#Tail)"/><path fill="#ffffff" stroke="#e7e767" opacity="1" d="M166.5,306 L168,306.5 L165,308.5 L165.5,310 L163,309.5 L166.5,306 z" class="" fill-opacity="1" stroke-opacity="1" id="svg_136" marker-start="url(#SquareM)" marker-end="url(#Tail)"/><path fill="#ffffff" stroke="#e7e767" opacity="1" d="M186.5,308 L187,309.5 L183.5,312 L186.5,308 z" class="" fill-opacity="1" stroke-opacity="1" id="svg_137" marker-start="url(#SquareM)" marker-end="url(#Tail)"/><path fill="#ffffff" stroke="#e7e767" opacity="1" d="M292.5,308 L293,310 L296,311.5 L292.5,313 L290,312 Q288.5,308.3 291.5,309 L292.5,308 z" class="" fill-opacity="1" stroke-opacity="1" id="svg_138" marker-start="url(#SquareM)" marker-end="url(#Tail)"/><path fill="#ffffff" stroke="#e7e767" opacity="1" d="M158.5,311 L160,311.5 L158.5,312 L158.5,311 z" class="" fill-opacity="1" stroke-opacity="1" id="svg_139" marker-start="url(#SquareM)" marker-end="url(#Tail)"/><path fill="#ffffff" stroke="#e7e767" opacity="1" d="M181.5,313 L182,314.5 L179,316 Q180.1,318.7 177.5,318 L181.5,313 z" class="" fill-opacity="1" stroke-opacity="1" id="svg_140" marker-start="url(#SquareM)" marker-end="url(#Tail)"/><path fill="#ffffff" stroke="#e7e767" opacity="1" d="M311.5,314 L315,315 L314,320 L316,320.5 L314.5,321 L311.5,314 z" class="" fill-opacity="1" stroke-opacity="1" id="svg_141" marker-start="url(#SquareM)" marker-end="url(#Tail)"/><path fill="#ffffff" stroke="#e7e767" opacity="1" d="M277.5,317 L279,317.5 L277.5,318 L277.5,317 z" class="" fill-opacity="1" stroke-opacity="1" id="svg_142" marker-start="url(#SquareM)" marker-end="url(#Tail)"/><path fill="#ffffff" stroke="#e7e767" opacity="1" d="M175.5,319 L177,319.5 L175.5,320 L175.5,319 z" class="" fill-opacity="1" stroke-opacity="1" id="svg_143" marker-start="url(#SquareM)" marker-end="url(#Tail)"/><path fill="#ffffff" stroke="#e7e767" opacity="1" d="M260.5,333 L260.5,334 L260.5,333 z" class="" fill-opacity="1" stroke-opacity="1" id="svg_144" marker-start="url(#SquareM)" marker-end="url(#Tail)"/><path fill="#ffffff" stroke="#e7e767" opacity="1" d="M227.5,355 L232.5,356 L234.5,355 L233.5,357 L228.5,357 L221.5,359 L222,357.5 Q221.1,354.1 226.5,356 L227.5,355 z" class="" fill-opacity="1" stroke-opacity="1" id="svg_145" marker-start="url(#SquareM)" marker-end="url(#Tail)"/><path fill="#ffffff" stroke="#e7e767" opacity="1" d="M273.5,364 L273.5,365 L273.5,364 z" class="" fill-opacity="1" stroke-opacity="1" id="svg_146" marker-start="url(#SquareM)" marker-end="url(#Tail)"/><path fill="#000000" stroke="none" opacity="1" d="M265.5,394 L265.5,395 L265.5,394 z" class="" id="svg_147" marker-start="url(#SquareM)" marker-end="url(#Tail)"/><path fill="#ffffff" stroke="#e7e767" opacity="1" d="M 175.5 97 L 174 99.5 L 173.5 101 L 173 98 L 175.5 97 Z " id="svg_3" class="" fill-opacity="1" stroke-opacity="1" marker-start="url(#SquareM)" marker-end="url(#Tail)"/><path fill="#000000" stroke="none" opacity="1" d="M 21 100 L 23 100.5 L 21 101.5 L 21 100 Z " id="svg_4"/><path fill="#ffffff" stroke="#e7e767" opacity="1" d="M 81 157 Q 84.7 155.8 83 161 L 81 161.5 L 81 169 L 78.5 169 L 78.5 168 Q 81.3 168.6 80 162.5 L 79 160.5 L 81 157 Z " id="svg_5" class="" fill-opacity="1" stroke-opacity="1" marker-start="url(#SquareM)" marker-end="url(#Tail)"/><path fill="#ffffff" stroke="#e7e767" opacity="1" d="M 117.5 161 L 120 162.5 L 118.5 163 L 117.5 161 Z " id="svg_6" class="" fill-opacity="1" stroke-opacity="1" marker-start="url(#SquareM)" marker-end="url(#Tail)"/><path fill="#ffffff" stroke="#e7e767" opacity="1" d="M 95 177 L 98 178.5 L 103 187.5 L 102 190 L 98 188.5 Q 98.7 185.9 96 187 L 96 185 L 99 183.5 L 97 183 L 95 177 Z " id="svg_7" class="" fill-opacity="1" stroke-opacity="1" marker-start="url(#SquareM)" marker-end="url(#Tail)"/><path fill="#ffffff" stroke="#e7e767" opacity="1" d="M 89.5 184 L 94.5 191 L 98 192.5 L 101 198.5 L 101 200.5 Q 102.5 205.8 98 204 Q 97.4 196.9 92 193.5 L 92 190.5 L 89 186.5 L 89.5 184 Z " id="svg_8" class="" fill-opacity="1" stroke-opacity="1" marker-start="url(#SquareM)" marker-end="url(#Tail)"/><path fill="#ffffff" stroke="#e7e767" opacity="1" d="M 51.5 188 L 51.5 189 L 51.5 188 Z " id="svg_9" class="" fill-opacity="1" stroke-opacity="1" marker-start="url(#SquareM)" marker-end="url(#Tail)"/><path fill="#ffffff" stroke="#e7e767" opacity="1" d="M 85.5 190 Q 87.8 189.3 87 191.5 L 96 204.5 L 97 209.5 L 96 210.5 L 100 214.5 Q 99.3 216.8 101.5 216 L 107 221.5 L 108 225.5 L 114 233 L 119 232.5 L 118.5 231 Q 121.8 229.9 121 232.5 Q 124.7 233.7 124 238 L 120.5 237 L 117.5 238 L 113.5 237 L 111 234.5 L 100.5 219 L 98 217.5 L 88 205.5 L 88 203.5 L 89 201 Q 85.2 202.5 86 199.5 Q 81.5 197.8 83 191 L 85.5 190 Z M 92 204 L 91 206 L 92 206 L 92 204 Z M 94 206 Q 92 209 95 208 L 94 206 Z M 118 221 L 118 222 L 118 221 Z M 123 236 L 123 237 L 123 236 Z " id="svg_10" class="" fill-opacity="1" stroke-opacity="1" marker-start="url(#SquareM)" marker-end="url(#Tail)"/><path fill="#ffffff" stroke="#e7e767" opacity="1" d="M 112.5 195 L 114 195.5 L 112.5 196 L 112.5 195 Z " id="svg_11" class="" fill-opacity="1" stroke-opacity="1" marker-start="url(#SquareM)" marker-end="url(#Tail)"/><path fill="#ffffff" stroke="#e7e767" opacity="1" d="M 125.5 200 L 127 202.5 L 125 201.5 L 125.5 200 Z " id="svg_12" class="" fill-opacity="1" stroke-opacity="1" marker-start="url(#SquareM)" marker-end="url(#Tail)"/><path fill="#ffffff" stroke="#e7e767" opacity="1" d="M 165.5 206 L 165.5 207 L 165.5 206 Z " id="svg_13" class="" fill-opacity="1" stroke-opacity="1" marker-start="url(#SquareM)" marker-end="url(#Tail)"/><path fill="#ffffff" stroke="#e7e767" opacity="1" d="M 198.5 217 L 202 219.5 L 200.5 220 L 198.5 217 Z " id="svg_14" class="" fill-opacity="1" stroke-opacity="1" marker-start="url(#SquareM)" marker-end="url(#Tail)"/><path fill="#ffffff" stroke="#e7e767" opacity="1" d="M 193 218 L 196 219.5 L 198.5 223 Q 200.8 222.3 200 224.5 L 204.5 227 L 206.5 224 L 207 228 Q 210.8 227 212 229.5 L 208.5 230 Q 207.3 227.8 202.5 229 L 199 226.5 L 196.5 223 Q 194.3 223.8 195 221.5 L 193 218 Z " id="svg_15" class="" fill-opacity="1" stroke-opacity="1" marker-start="url(#SquareM)" marker-end="url(#Tail)"/><path fill="#ffffff" stroke="#e7e767" opacity="1" d="M 210.5 220 L 216 222.5 L 216.5 224 L 217 222 L 219.5 223 L 221.5 222 L 226 223 Q 224.3 227.5 229.5 226 L 231.5 226 Q 239.4 227.1 242 233.5 L 253 250 L 250 250.5 L 251 256 L 245.5 254 L 243 255 L 243 260 L 241 260 L 241 253.5 L 242 252.5 L 238 246 Q 234.6 246.8 233.5 244 L 233 245.5 L 239 252.5 L 239 255 Q 236.3 256.1 237 253.5 L 233 252 L 229 246.5 Q 231.3 245.3 228.5 244 L 225 241.5 L 226.5 242 L 232.5 244 L 227.5 238 L 218.5 233 L 209 232.5 L 217 232 Q 218.1 229.3 215.5 230 L 213 228.5 L 215 227.5 Q 213.7 224.3 209 224.5 L 211 223.5 Q 207.3 221.8 210.5 220 Z " id="svg_16" class="" fill-opacity="1" stroke-opacity="1" marker-start="url(#SquareM)" marker-end="url(#Tail)"/><path fill="#ffffff" stroke="#e7e767" opacity="1" d="M 203.5 221 L 203.5 222 L 203.5 221 Z " id="svg_17" class="" fill-opacity="1" stroke-opacity="1" marker-start="url(#SquareM)" marker-end="url(#Tail)"/><path fill="#ffffff" stroke="#e7e767" opacity="1" d="M 312.5 224 L 314 224.5 L 313 227 L 321.5 224 Q 322.8 227.3 328.5 226 Q 330 223.5 335.5 225 L 335.5 226 L 326.5 227 L 324 228.5 L 324.5 230 L 320 228.5 L 323 226.5 L 319.5 226 L 312 229.5 L 312.5 231 L 310.5 230 L 305.5 234 L 307 231.5 Q 307.9 228.5 303.5 230 L 290 241.5 L 288 247 L 285 248.5 L 286 250.5 L 282.5 259 L 281 256.5 L 283 254.5 L 284 247.5 Q 287.5 247 287 242.5 L 287 240.5 L 286 238.5 L 288 238 L 288 236 L 291 236 Q 289.9 233.3 292.5 234 L 296.5 231 L 297.5 233 L 306.5 227 L 310 227 Q 308.9 224.3 311.5 225 L 312.5 224 Z M 309 228 L 309 229 L 310 229 L 309 228 Z M 308 229 L 308 230 L 308 229 Z " id="svg_18" class="" fill-opacity="1" stroke-opacity="1" marker-start="url(#SquareM)" marker-end="url(#Tail)"/><path fill="#ffffff" stroke="#e7e767" opacity="1" d="M 283.5 226 L 283.5 227 L 283.5 226 Z " id="svg_19" class="" fill-opacity="1" stroke-opacity="1" marker-start="url(#SquareM)" marker-end="url(#Tail)"/><path fill="#ffffff" stroke="#e7e767" opacity="1" d="M 277 227 L 281 227 L 281 236.5 Q 278.5 238 282 239.5 L 280.5 241 L 276 229.5 L 277 227 Z " id="svg_20" class="" fill-opacity="1" stroke-opacity="1" marker-start="url(#SquareM)" marker-end="url(#Tail)"/><path fill="#ffffff" stroke="#e7e767" opacity="1" d="M 94 228 Q 97.7 226.5 97 229.5 L 101 232.5 L 101 235.5 L 106 244 Q 112.5 244.6 116.5 249 L 124.5 249 L 125.5 250 L 126.5 249 L 132 254.5 L 133 258 Q 137.6 259.3 139 256.5 L 138 252.5 L 142.5 247 L 143 249.5 L 142 254.5 L 143 256.5 L 142 257.5 L 142 265.5 Q 145.2 267.8 144 274.5 L 143 276.5 L 144 277.5 L 144 285.5 L 146 294.5 L 145 297 L 147 297.5 L 145 303 L 147 303 L 147 308 L 144.5 309 L 139 305.5 Q 142 302.5 141 295.5 L 142.5 294 L 144 293.5 L 139 284.5 Q 141.2 283.3 140 278.5 L 138.5 279 L 137 278.5 L 139 274.5 L 138 272 Q 135.3 273.1 136 270.5 L 130.5 263 Q 128.3 262.3 129 264.5 L 129.5 266 L 122 265 L 124 274.5 L 128 282.5 L 127 284.5 Q 130.5 286 129 292.5 L 133 297.5 L 134 304.5 Q 138.7 309.6 140 317 Q 143 315.8 142 319.5 L 143 320.5 L 143 327 L 139 324.5 L 138 320.5 Q 140.3 319.3 137.5 318 Q 134.9 317.2 136 320.5 L 135 323.5 L 136 328.5 L 135 331.5 L 138 341.5 L 141.5 346 L 150.5 347 L 152.5 346 L 151.5 348 Q 148.2 346.9 149 349.5 L 146.5 353 Q 139.5 353 136.5 349 L 133 349 L 134 342 Q 130.2 343.5 131 340.5 L 132 335.5 L 128.5 328 L 125.5 330 L 125 327 L 129 326 L 128 320 Q 130.7 321.1 130 318.5 L 129 313.5 L 130 311.5 Q 127.7 307.7 125.5 313 Q 123.3 313.8 124 311.5 L 125 309.5 Q 122.2 307.8 124 301.5 L 126 297.5 Q 123.3 295.8 125 289.5 L 122.5 287 Q 118.8 288.3 120 284.5 Q 124 282.5 120 280.5 Q 120.8 278.3 118.5 279 L 116 276.5 L 115 271 L 117 270.5 L 116 267.5 Q 118.2 266.2 117 261.5 L 118.5 260 L 121.5 261 L 122 259 L 125 258.5 Q 116.6 258.4 111.5 255 L 107 256 L 101.5 263 L 100 260.5 L 101 258.5 L 100 257.5 L 103.5 254 L 105 253.5 L 104 250 L 101 248.5 L 99.5 245 L 94.5 248 L 94 245.5 Q 98 243.5 98 237.5 L 94 228 Z M 104 246 L 104 247 L 104 246 Z M 123 252 L 127 256 L 128 256 L 123 252 Z M 124 261 L 124 262 L 126 262 L 124 261 Z M 129 262 L 129 263 L 129 262 Z M 133 324 L 133 325 L 133 324 Z " id="svg_21" class="" fill-opacity="1" stroke-opacity="1" marker-start="url(#SquareM)" marker-end="url(#Tail)"/><path fill="#ffffff" stroke="#e7e767" opacity="1" d="M 283.5 228 L 284 232 L 282 231.5 L 283.5 228 Z " id="svg_22" class="" fill-opacity="1" stroke-opacity="1" marker-start="url(#SquareM)" marker-end="url(#Tail)"/><path fill="#ffffff" stroke="#e7e767" opacity="1" d="M 330.5 228 L 340 229.5 L 336.5 230 Q 335.2 227.8 330.5 229 L 330.5 228 Z " id="svg_23" class="" fill-opacity="1" stroke-opacity="1" marker-start="url(#SquareM)" marker-end="url(#Tail)"/><path fill="#ffffff" stroke="#e7e767" opacity="1" d="M 138.5 229 L 138.5 230 L 138.5 229 Z " id="svg_24" class="" fill-opacity="1" stroke-opacity="1" marker-start="url(#SquareM)" marker-end="url(#Tail)"/><path fill="#ffffff" stroke="#e7e767" opacity="1" d="M 198.5 230 L 198.5 231 L 198.5 230 Z " id="svg_25" class="" fill-opacity="1" stroke-opacity="1" marker-start="url(#SquareM)" marker-end="url(#Tail)"/><path fill="#ffffff" stroke="#e7e767" opacity="1" d="M 200.5 230 Q 205 229 206 231.5 L 203.5 232 L 200.5 231 L 200.5 230 Z " id="svg_26" class="" fill-opacity="1" stroke-opacity="1" marker-start="url(#SquareM)" marker-end="url(#Tail)"/><path fill="#ffffff" stroke="#e7e767" opacity="1" d="M 273.5 230 L 278 238.5 L 278 242.5 L 277 242.5 L 272 231.5 L 273.5 230 Z " id="svg_27" class="" fill-opacity="1" stroke-opacity="1" marker-start="url(#SquareM)" marker-end="url(#Tail)"/><path fill="#ffffff" stroke="#e7e767" opacity="1" d="M 341.5 230 L 341.5 231 L 341.5 230 Z " id="svg_28" class="" fill-opacity="1" stroke-opacity="1" marker-start="url(#SquareM)" marker-end="url(#Tail)"/><path fill="#ffffff" stroke="#e7e767" opacity="1" d="M 171.5 232 Q 174.1 231.3 173 234 L 165.5 237 L 166.5 235 L 171.5 232 Z " id="svg_29" class="" fill-opacity="1" stroke-opacity="1" marker-start="url(#SquareM)" marker-end="url(#Tail)"/><path fill="#ffffff" stroke="#e7e767" opacity="1" d="M 343.5 232 L 349 234.5 L 347.5 235 L 343.5 233 L 343.5 232 Z " id="svg_30" class="" fill-opacity="1" stroke-opacity="1" marker-start="url(#SquareM)" marker-end="url(#Tail)"/><path fill="#ffffff" stroke="#e7e767" opacity="1" d="M 261.5 233 L 264.5 233 L 269.5 238 L 270 235 L 272 235.5 L 270 238.5 L 275 241.5 L 274 245.5 Q 276.8 247.3 275 253.5 L 274 253.5 Q 271.4 250.6 272 244.5 L 269 239 Q 265.3 240.5 266 237.5 L 261.5 233 Z " id="svg_31" class="" fill-opacity="1" stroke-opacity="1" marker-start="url(#SquareM)" marker-end="url(#Tail)"/><path fill="#ffffff" stroke="#e7e767" opacity="1" d="M 303.5 234 L 303.5 235 L 303.5 234 Z " id="svg_32" class="" fill-opacity="1" stroke-opacity="1" marker-start="url(#SquareM)" marker-end="url(#Tail)"/><path fill="#ffffff" stroke="#e7e767" opacity="1" d="M 350.5 235 L 354 237.5 L 352.5 237 L 350.5 235 Z " id="svg_33" class="" fill-opacity="1" stroke-opacity="1" marker-start="url(#SquareM)" marker-end="url(#Tail)"/><path fill="#ffffff" stroke="#e7e767" opacity="1" d="M 299.5 236 L 297.5 239 L 299.5 236 Z " id="svg_34" class="" fill-opacity="1" stroke-opacity="1" marker-start="url(#SquareM)" marker-end="url(#Tail)"/><path fill="#ffffff" stroke="#e7e767" opacity="1" d="M 163.5 238 L 163.5 239 L 163.5 238 Z " id="svg_35" class="" fill-opacity="1" stroke-opacity="1" marker-start="url(#SquareM)" marker-end="url(#Tail)"/><path fill="#ffffff" stroke="#e7e767" opacity="1" d="M 161.5 239 L 162 240.5 L 159 242.5 L 161.5 239 Z " id="svg_36" class="" fill-opacity="1" stroke-opacity="1" marker-start="url(#SquareM)" marker-end="url(#Tail)"/><path fill="#ffffff" stroke="#e7e767" opacity="1" d="M 121.5 240 L 124 241.5 L 120 242 Q 121 245 118 244 L 119.5 241 L 121.5 240 Z " id="svg_37" class="" fill-opacity="1" stroke-opacity="1" marker-start="url(#SquareM)" marker-end="url(#Tail)"/><path fill="#ffffff" stroke="#e7e767" opacity="1" d="M 158 244 L 160 244.5 L 156 251.5 L 156 255.5 L 160 258 L 161 252 L 164.5 253 L 166.5 250 L 169.5 251 L 174.5 248 L 175 249.5 L 171.5 254 L 163 258 L 160.5 263 L 158 264.5 L 158 266.5 L 160 269.5 L 157 268.5 Q 155.9 271.8 158.5 271 L 161.5 272 L 163 272 Q 161.5 275.7 164.5 275 L 168.5 282 L 172.5 283 L 174.5 283 L 177 283 L 177 288 L 179.5 288 L 181.5 287 L 187.5 290 Q 196.8 288.7 201.5 292 L 210.5 289 L 212.5 290 L 220.5 287 L 226.5 287 L 235 279.5 Q 236.1 272.1 241 268.5 L 238.5 268 L 237 268.5 L 237 264.5 Q 240 263.3 239 259 L 237 258.5 Q 238.5 255.5 240 258.5 Q 238.8 262.3 242.5 261 L 242.5 262 L 240 262.5 L 243 263.5 L 240 264.5 L 244.5 268 L 252 263.5 L 250 262.5 L 261.5 256 L 271.5 256 L 277 257.5 L 267.5 258 L 264.5 257 L 252 262.5 L 254.5 264 L 264.5 260 L 279 259 L 277.5 262 L 275.5 263 Q 274 259.5 272.5 262 L 267.5 263 L 265.5 262 L 254 266.5 Q 255.3 273.8 251.5 276 L 248.5 275 L 245 277 L 244.5 279 L 242.5 278 L 238 285 L 234.5 287 L 233.5 285 L 229.5 290 L 227.5 289 Q 225.8 291.8 220.5 291 L 213.5 296 L 214.5 294 L 217 292.5 L 214.5 292 L 209.5 296 L 209 294 L 198 296 L 197.5 294 L 194.5 295 L 192.5 294 Q 191.2 296.2 186.5 295 L 183.5 297 L 181 296.5 L 179 292 Q 172.6 291 171 296.5 L 170.5 298 L 169.5 297 L 167 298.5 L 169 294 L 164.5 292 L 157.5 301 L 158 299.5 L 157 296.5 L 159 288.5 L 158 286.5 Q 160.2 285.2 159 280.5 Q 157.8 277.8 156.5 280 Q 154.3 280.8 155 278.5 L 156 276 L 158 275.5 L 155 275 L 154 265.5 Q 156.3 264.3 153.5 263 L 153 266 L 147 268 L 148 263 L 146 262.5 L 150 259.5 L 148 258.5 L 148.5 256 L 150.5 256 Q 153.1 255.2 152 258.5 L 151.5 260 L 154 260 L 154 254.5 L 158 244 Z M 153 261 L 152 263 L 153 263 L 153 261 Z M 244 271 L 244 272 L 244 271 Z M 249 272 L 249 273 L 249 272 Z M 242 276 L 242 277 L 242 276 Z M 240 278 L 239 280 L 240 280 L 240 278 Z M 236 283 L 236 284 L 236 283 Z M 221 288 L 221 289 L 221 288 Z M 171 291 L 171 292 L 171 291 Z M 218 291 L 218 292 L 218 291 Z M 261 292 Q 260 295 263 294 Q 264 291 261 292 Z " id="svg_38" class="" fill-opacity="1" stroke-opacity="1" marker-start="url(#SquareM)" marker-end="url(#Tail)"/><path fill="#ffffff" stroke="#e7e767" opacity="1" d="M 143.5 245 L 143.5 246 L 143.5 245 Z " id="svg_39" class="" fill-opacity="1" stroke-opacity="1" marker-start="url(#SquareM)" marker-end="url(#Tail)"/><path fill="#ffffff" stroke="#e7e767" opacity="1" d="M 207.5 246 L 215 247.5 L 211 248.5 L 217 250 Q 218.6 252.1 218 257.5 L 218 259.5 Q 218.8 261.8 216.5 261 L 211 264.5 L 211.5 266 Q 204 267.5 200.5 265 L 198 266.5 Q 198.8 264.3 196.5 265 L 193 262.5 L 195 262 L 193.5 258 L 192 258.5 L 192.5 260 L 189 257.5 L 188 254.5 L 189 251 Q 191.7 252.1 191 249.5 L 190.5 248 L 194.5 247 Q 196.3 249.8 202.5 248 L 204.5 247 L 209.5 248 L 209.5 247 Q 206.5 247.5 207.5 246 Z M 208 253 Q 207 257 211 258 L 214 257 Q 216 256 214 255 L 214 253 L 208 253 Z M 193 254 L 193 255 L 194 255 L 193 254 Z M 199 261 L 199 264 L 203 263 Q 204 259 199 261 Z " id="svg_40" class="" fill-opacity="1" stroke-opacity="1" marker-start="url(#SquareM)" marker-end="url(#Tail)"/><path fill="#ffffff" stroke="#e7e767" opacity="1" d="M 119.5 247 L 122 247.5 L 119.5 248 L 119.5 247 Z " id="svg_41" class="" fill-opacity="1" stroke-opacity="1" marker-start="url(#SquareM)" marker-end="url(#Tail)"/><path fill="#ffffff" stroke="#e7e767" opacity="1" d="M 216.5 248 Q 222.1 248.5 224 252.5 L 222.5 253 L 218 251 Q 219.1 248.3 216.5 249 L 216.5 248 Z " id="svg_42" class="" fill-opacity="1" stroke-opacity="1" marker-start="url(#SquareM)" marker-end="url(#Tail)"/><path fill="#ffffff" stroke="#e7e767" opacity="1" d="M 219.5 253 L 220.5 255 L 219.5 253 Z " id="svg_43" class="" fill-opacity="1" stroke-opacity="1" marker-start="url(#SquareM)" marker-end="url(#Tail)"/><path fill="#ffffff" stroke="#e7e767" opacity="1" d="M 378.5 253 L 378.5 254 L 378.5 253 Z " id="svg_44" class="" fill-opacity="1" stroke-opacity="1" marker-start="url(#SquareM)" marker-end="url(#Tail)"/><path fill="#ffffff" stroke="#e7e767" opacity="1" d="M 225.5 255 L 225.5 256 L 225.5 255 Z " id="svg_45" class="" fill-opacity="1" stroke-opacity="1" marker-start="url(#SquareM)" marker-end="url(#Tail)"/><path fill="#ffffff" stroke="#e7e767" opacity="1" d="M 377.5 256 Q 379.8 255.3 379 257.5 L 377.5 256 Z " id="svg_46" class="" fill-opacity="1" stroke-opacity="1" marker-start="url(#SquareM)" marker-end="url(#Tail)"/><path fill="#ffffff" stroke="#e7e767" opacity="1" d="M 223.5 258 L 223.5 259 L 223.5 258 Z " id="svg_47" class="" fill-opacity="1" stroke-opacity="1" marker-start="url(#SquareM)" marker-end="url(#Tail)"/><path fill="#ffffff" stroke="#e7e767" opacity="1" d="M 181.5 261 L 192 266.5 L 186.5 267 L 183 265 L 181.5 261 Z " id="svg_48" class="" fill-opacity="1" stroke-opacity="1" marker-start="url(#SquareM)" marker-end="url(#Tail)"/><path fill="#ffffff" stroke="#e7e767" opacity="1" d="M 369.5 261 L 372 261.5 L 369.5 262 L 369.5 261 Z " id="svg_49" class="" fill-opacity="1" stroke-opacity="1" marker-start="url(#SquareM)" marker-end="url(#Tail)"/><path fill="#ffffff" stroke="#e7e767" opacity="1" d="M 226.5 262 L 226.5 263 L 226.5 262 Z " id="svg_50" class="" fill-opacity="1" stroke-opacity="1" marker-start="url(#SquareM)" marker-end="url(#Tail)"/><path fill="#ffffff" stroke="#e7e767" opacity="1" d="M 224.5 263 L 224.5 264 L 224.5 263 Z " id="svg_51" class="" fill-opacity="1" stroke-opacity="1" marker-start="url(#SquareM)" marker-end="url(#Tail)"/><path fill="#ffffff" stroke="#e7e767" opacity="1" d="M 280.5 263 L 280.5 264 L 280.5 263 Z " id="svg_52" class="" fill-opacity="1" stroke-opacity="1" marker-start="url(#SquareM)" marker-end="url(#Tail)"/><path fill="#ffffff" stroke="#e7e767" opacity="1" d="M 228 264 L 231 264.5 L 228 266 L 228 264 Z " id="svg_53" class="" fill-opacity="1" stroke-opacity="1" marker-start="url(#SquareM)" marker-end="url(#Tail)"/><path fill="#ffffff" stroke="#e7e767" opacity="1" d="M 193.5 267 L 195 267.5 L 193.5 268 L 193.5 267 Z " id="svg_54" class="" fill-opacity="1" stroke-opacity="1" marker-start="url(#SquareM)" marker-end="url(#Tail)"/><path fill="#ffffff" stroke="#e7e767" opacity="1" d="M 217.5 267 L 220 267.5 L 217.5 268 L 217.5 267 Z " id="svg_55" class="" fill-opacity="1" stroke-opacity="1" marker-start="url(#SquareM)" marker-end="url(#Tail)"/><path fill="#ffffff" stroke="#e7e767" opacity="1" d="M 262.5 277 L 266 278.5 Q 262.5 280 265 281.5 Q 264.3 283.8 266.5 283 L 269.5 281 L 269.5 282 L 265 285.5 L 267 286.5 L 264 294.5 L 265.5 297 L 271 295 L 268.5 299 L 266 300.5 L 267 301.5 L 265.5 304 L 271 305.5 L 269 306.5 L 274 313.5 Q 270.5 315 273 316.5 Q 271.7 320.7 276.5 319 L 281 321.5 L 273.5 330 L 271 330.5 Q 272.5 333.5 278.5 332 L 294 323.5 Q 293.2 320.9 296.5 322 L 300.5 321 L 306 324.5 Q 304.7 329.3 308 328 Q 309.8 325.6 309 319.5 L 306.5 315 L 297 311 L 297.5 309 L 304.5 312 L 306.5 311 L 306.5 312 L 305 312.5 L 310 316 L 312 319.5 L 310.5 324 L 312.5 325 L 316.5 323 L 316.5 324 Q 313.9 323.3 315 326 L 311 326 L 311 327.5 L 311 329.5 L 309.5 332 L 308 332.5 L 308.5 334 L 304 335 L 305.5 332 L 308 331.5 L 304 330 L 302.5 333 L 299.5 332 L 294.5 333 L 292.5 332 L 285 334 Q 286.1 336.7 283.5 336 L 280.5 335 L 276.5 336 L 274 335 L 271 342.5 L 271 347.5 L 273 351.5 L 270 354.5 L 271 355.5 L 272 360.5 L 270 361.5 L 272 362 L 272.5 368 L 274 367.5 L 273.5 370 L 271.5 368 Q 270 371.5 268.5 369 Q 265.1 369.9 267 364.5 L 268 360.5 L 266 360.5 Q 267.3 356.3 262.5 358 L 256.5 356 L 254 353.5 L 253.5 352 L 245.5 352 Q 244.3 354.2 239.5 353 L 239.5 352 L 245 351.5 L 243.5 350 L 232 348 Q 233.1 345.3 230.5 346 L 230.5 345 L 237.5 346 L 239.5 345 L 243.5 345 Q 246.1 345.7 245 343 L 249.5 343 L 253.5 344 L 257 342.5 L 252 340.5 L 253 337 L 250 335.5 Q 249.1 332.5 253.5 334 L 256.5 335 L 259 334 Q 257.3 338.1 261.5 337 L 261.5 336 L 260 335.5 L 263 333.5 L 261.5 331 Q 256.9 330.4 255.5 333 L 255 331 L 251.5 331 L 248.5 328 L 243.5 327 L 244.5 329 L 247 330.5 L 245.5 330 L 239 325.5 L 240 323.5 L 238.5 321 L 235.5 322 L 237 319.5 Q 238.4 313.4 243 310.5 L 243 308 L 249 304.5 L 253 295 L 258 292.5 L 259 289.5 L 258 287.5 L 259 287.5 L 259.5 289 L 261 286.5 L 258 284.5 L 259 280.5 L 262.5 277 Z M 258 309 L 258 310 L 261 310 L 258 309 Z M 262 310 L 256 314 L 254 313 Q 247 313 245 317 Q 246 319 243 318 L 242 321 Q 241 323 244 322 L 246 326 Q 248 325 247 320 L 262 321 L 265 325 L 267 325 L 265 324 L 263 318 L 264 316 L 263 315 Q 259 313 264 311 L 262 310 Z M 279 321 L 279 322 L 279 321 Z M 298 322 L 298 323 L 298 322 Z M 242 325 L 242 326 L 242 325 Z M 254 326 Q 251 330 255 329 L 254 326 Z M 262 328 L 262 329 L 262 328 Z M 271 329 L 271 330 L 271 329 Z M 268 333 L 269 337 L 272 335 L 268 333 Z M 269 338 L 267 340 L 269 340 L 269 338 Z M 260 341 L 260 342 L 260 341 Z M 268 344 L 267 346 Q 269 349 270 346 L 268 344 Z M 248 345 L 248 346 L 249 346 L 248 345 Z M 250 346 L 247 348 Q 249 350 254 349 L 254 347 L 250 348 L 250 346 Z M 260 346 L 260 347 L 260 346 Z M 267 348 L 267 350 L 270 351 L 271 351 L 267 348 Z M 265 350 L 265 352 Q 264 354 267 353 L 266 352 Q 267 349 265 350 Z M 256 352 Q 256 356 264 356 L 263 352 L 260 353 L 256 352 Z M 269 364 L 269 365 L 269 364 Z M 270 366 L 269 368 L 270 368 L 270 366 Z " id="svg_56" class="" fill-opacity="1" stroke-opacity="1" marker-start="url(#SquareM)" marker-end="url(#Tail)"/><path fill="#ffffff" stroke="#e7e767" opacity="1" d="M 284.5 282 L 285.5 284 L 284.5 282 Z " id="svg_57" class="" fill-opacity="1" stroke-opacity="1" marker-start="url(#SquareM)" marker-end="url(#Tail)"/><path fill="#ffffff" stroke="#e7e767" opacity="1" d="M 292.5 282 L 292.5 283 L 292.5 282 Z " id="svg_58" class="" fill-opacity="1" stroke-opacity="1" marker-start="url(#SquareM)" marker-end="url(#Tail)"/><path fill="#ffffff" stroke="#e7e767" opacity="1" d="M 332.5 285 L 332.5 286 L 332.5 285 Z " id="svg_59" class="" fill-opacity="1" stroke-opacity="1" marker-start="url(#SquareM)" marker-end="url(#Tail)"/><path fill="#ffffff" stroke="#e7e767" opacity="1" d="M 287.5 290 L 287.5 291 L 287.5 290 Z " id="svg_60" class="" fill-opacity="1" stroke-opacity="1" marker-start="url(#SquareM)" marker-end="url(#Tail)"/><path fill="#ffffff" stroke="#e7e767" opacity="1" d="M 290.5 302 L 292 304.5 L 290 303.5 L 290.5 302 Z " id="svg_61" class="" fill-opacity="1" stroke-opacity="1" marker-start="url(#SquareM)" marker-end="url(#Tail)"/><path fill="#ffffff" stroke="#e7e767" opacity="1" d="M 189.5 304 L 189.5 305 L 189.5 304 Z " id="svg_62" class="" fill-opacity="1" stroke-opacity="1" marker-start="url(#SquareM)" marker-end="url(#Tail)"/><path fill="#ffffff" stroke="#e7e767" opacity="1" d="M 166.5 306 L 168 306.5 L 165 308.5 L 165.5 310 L 163 309.5 L 166.5 306 Z " id="svg_63" class="" fill-opacity="1" stroke-opacity="1" marker-start="url(#SquareM)" marker-end="url(#Tail)"/><path fill="#ffffff" stroke="#e7e767" opacity="1" d="M 186.5 308 L 187 309.5 L 183.5 312 L 186.5 308 Z " id="svg_64" class="" fill-opacity="1" stroke-opacity="1" marker-start="url(#SquareM)" marker-end="url(#Tail)"/><path fill="#ffffff" stroke="#e7e767" opacity="1" d="M 292.5 308 L 293 310 L 296 311.5 L 292.5 313 L 290 312 Q 288.5 308.3 291.5 309 L 292.5 308 Z " id="svg_65" class="" fill-opacity="1" stroke-opacity="1" marker-start="url(#SquareM)" marker-end="url(#Tail)"/><path fill="#ffffff" stroke="#e7e767" opacity="1" d="M 158.5 311 L 160 311.5 L 158.5 312 L 158.5 311 Z " id="svg_66" class="" fill-opacity="1" stroke-opacity="1" marker-start="url(#SquareM)" marker-end="url(#Tail)"/><path fill="#ffffff" stroke="#e7e767" opacity="1" d="M 181.5 313 L 182 314.5 L 179 316 Q 180.1 318.7 177.5 318 L 181.5 313 Z " id="svg_67" class="" fill-opacity="1" stroke-opacity="1" marker-start="url(#SquareM)" marker-end="url(#Tail)"/><path fill="#ffffff" stroke="#e7e767" opacity="1" d="M 311.5 314 L 315 315 L 314 320 L 316 320.5 L 314.5 321 L 311.5 314 Z " id="svg_68" class="" fill-opacity="1" stroke-opacity="1" marker-start="url(#SquareM)" marker-end="url(#Tail)"/><path fill="#ffffff" stroke="#e7e767" opacity="1" d="M 277.5 317 L 279 317.5 L 277.5 318 L 277.5 317 Z " id="svg_69" class="" fill-opacity="1" stroke-opacity="1" marker-start="url(#SquareM)" marker-end="url(#Tail)"/><path fill="#ffffff" stroke="#e7e767" opacity="1" d="M 175.5 319 L 177 319.5 L 175.5 320 L 175.5 319 Z " id="svg_70" class="" fill-opacity="1" stroke-opacity="1" marker-start="url(#SquareM)" marker-end="url(#Tail)"/><path fill="#ffffff" stroke="#e7e767" opacity="1" d="M 260.5 333 L 260.5 334 L 260.5 333 Z " id="svg_71" class="" fill-opacity="1" stroke-opacity="1" marker-start="url(#SquareM)" marker-end="url(#Tail)"/><path fill="#000000" stroke="none" opacity="1" d="M 414.5 344 L 414.5 345 L 414.5 344 Z " id="svg_72" class=""/><path fill="#ffffff" stroke="#e7e767" opacity="1" d="M 227.5 355 L 232.5 356 L 234.5 355 L 233.5 357 L 228.5 357 L 221.5 359 L 222 357.5 Q 221.1 354.1 226.5 356 L 227.5 355 Z " id="svg_73" class="" fill-opacity="1" stroke-opacity="1" marker-start="url(#SquareM)" marker-end="url(#Tail)"/><path fill="#ffffff" stroke="#e7e767" opacity="1" d="M 273.5 364 L 273.5 365 L 273.5 364 Z " id="svg_74" class="" fill-opacity="1" stroke-opacity="1" marker-start="url(#SquareM)" marker-end="url(#Tail)"/><path fill="#000000" stroke="none" opacity="1" d="M 265.5 394 L 265.5 395 L 265.5 394 Z " id="svg_75" class="" marker-start="url(#SquareM)" marker-end="url(#Tail)"/></g><defs><marker id="SquareM" refX="0" refY="0" orient="auto" xmlns:inkscape="http://www.inkscape.org/namespaces/inkscape" inkscape:stockid="SquareM" overflow="visible">
            <path transform="scale(.4)" d="M-5-5v10h10v-10h-10z" fill-rule="evenodd" stroke="#000" stroke-width="1pt" style="fill: rgb(231, 231, 103); stroke: rgb(231, 231, 103); stroke-dasharray: none;"/>
        </marker><marker id="Tail" refX="0" refY="0" orient="auto" xmlns:inkscape="http://www.inkscape.org/namespaces/inkscape" inkscape:stockid="Tail" overflow="visible">
            <g stroke="#000" stroke-width=".8" stroke-linecap="round" fill="none" style="fill: rgb(231, 231, 103); stroke: rgb(231, 231, 103); stroke-dasharray: none;">
                <path d="M4.566 4.75l-5.218-4.75"/>
                <path d="M1.544 4.75l-5.218-4.75"/>
                <path d="M-1.566 4.75l-5.218-4.75"/>
                <path d="M4.566-5.013l-5.218 4.749"/>
                <path d="M1.544-5.013l-5.218 4.749"/>
                <path d="M-1.566-5.013l-5.218 4.749"/>
            </g>
        </marker></defs></svg>