<?xml version="1.0" encoding="UTF-8" standalone="no"?>
<svg
   xmlns:dc="http://purl.org/dc/elements/1.1/"
   xmlns:cc="http://creativecommons.org/ns#"
   xmlns:rdf="http://www.w3.org/1999/02/22-rdf-syntax-ns#"
   xmlns:svg="http://www.w3.org/2000/svg"
   xmlns="http://www.w3.org/2000/svg"
   xmlns:sodipodi="http://sodipodi.sourceforge.net/DTD/sodipodi-0.dtd"
   xmlns:inkscape="http://www.inkscape.org/namespaces/inkscape"
   xml:space="preserve"
   viewBox="0 0 407.14989 93.556596"
   height="93.557"
   width="407.15"
   version="1.1"
   id="svg412"
   sodipodi:docname="weknowstudio.svg"
   inkscape:version="0.92.5 (0.92.5+68)"><defs
     id="defs416" /><sodipodi:namedview
     pagecolor="#ffffff"
     bordercolor="#666666"
     borderopacity="1"
     objecttolerance="10"
     gridtolerance="10"
     guidetolerance="10"
     inkscape:pageopacity="0"
     inkscape:pageshadow="2"
     inkscape:window-width="1920"
     inkscape:window-height="1010"
     id="namedview414"
     showgrid="false"
     inkscape:pagecheckerboard="true"
     inkscape:zoom="1.8409264"
     inkscape:cx="268.44158"
     inkscape:cy="24.313168"
     inkscape:window-x="0"
     inkscape:window-y="0"
     inkscape:window-maximized="1"
     inkscape:current-layer="svg412" /><metadata
     id="metadata2"><rdf:RDF><cc:Work
         rdf:about=""><dc:format>image/svg+xml</dc:format><dc:type
           rdf:resource="http://purl.org/dc/dcmitype/StillImage" /><dc:title></dc:title></cc:Work></rdf:RDF></metadata><path
     style="opacity:0.99883004"
     inkscape:connector-curvature="0"
     id="path368"
     d="m 233.813,87.944 c 0.33042,0.21528 0.68717,0.46074 1.0662,0.734 0.38108,0.27161 0.79055,0.52094 1.2304,0.74433 0.43784,0.22479 0.90609,0.41574 1.4047,0.56939 0.49866,0.15427 1.0318,0.23271 1.6014,0.23271 0.9507,0 1.6906,-0.17817 2.2257,-0.53292 0.53312,-0.35635 0.80069,-0.87973 0.80069,-1.5685 0,-0.71191 -0.26757,-1.2306 -0.80069,-1.563 -0.53514,-0.33264 -1.3236,-0.70157 -2.3676,-1.1046 l -1.8872,-0.74838 c -1.1615,-0.47576 -2.1061,-1.0745 -2.8298,-1.7982 -0.72366,-0.72529 -1.0845,-1.7268 -1.0845,-3.0098 0,-0.64055 0.13576,-1.2383 0.40945,-1.7958 0.26961,-0.55986 0.65069,-1.046 1.1372,-1.4617 0.48649,-0.41169 1.0642,-0.73947 1.727,-0.97704 0.66488,-0.23919 1.3885,-0.35716 2.171,-0.35716 1.2588,0 2.3149,0.16621 3.1703,0.49885 0.85136,0.33264 1.6845,0.795 2.4912,1.3889 l -1.3176,2.027 c -0.49664,-0.30406 -1.0966,-0.62089 -1.798,-0.94076 -0.70136,-0.3223 -1.5122,-0.48061 -2.4385,-0.48061 -0.71149,0 -1.3277,0.17899 -1.8507,0.53534 -0.52298,0.35312 -0.78245,0.8392 -0.78245,1.4576 0,0.59393 0.16014,1.0642 0.47839,1.4048 0.32027,0.3444 0.96893,0.70947 1.9399,1.0887 l 2.2439,0.88764 c 0.56959,0.23677 1.1108,0.494 1.6216,0.76805 0.50879,0.27163 0.9588,0.59373 1.352,0.96042 0.39121,0.36892 0.69729,0.78873 0.92636,1.2628 0.22298,0.47677 0.33648,1.0302 0.33648,1.6709 0,0.76015 -0.14397,1.441 -0.42568,2.0467 -0.28581,0.60649 -0.69527,1.1293 -1.2304,1.5693 -0.53312,0.43806 -1.1676,0.77454 -1.9034,1.0135 -0.73784,0.23675 -1.5426,0.35473 -2.4223,0.35473 -1.352,0 -2.5804,-0.27142 -3.6832,-0.81872 -1.1048,-0.54142 -2.0939,-1.1354 -2.9737,-1.7783 l 1.4615,-2.2804" /><path
     style="opacity:0.99883004"
     inkscape:connector-curvature="0"
     id="path370"
     d="m 246.773,75.814 h 3.4865 v -5.907 l 2.9554,-0.4275 v 6.34 h 6.5859 v 2.6011 h -6.5859 v 7.4756 c 0,1.4917 0.30811,2.5725 0.92434,3.237 0.61824,0.66507 1.4737,0.99771 2.5642,0.99771 0.68921,0 1.3034,-0.12998 1.8507,-0.39121 0.56959,-0.23758 1.0581,-0.47433 1.4615,-0.71191 l 1.1372,2.2077 c -0.54528,0.37683 -1.2081,0.74596 -1.9926,1.1007 -0.76015,0.38068 -1.6966,0.57163 -2.8135,0.57163 -1.0196,0 -1.9095,-0.17818 -2.6676,-0.53534 -0.76014,-0.33244 -1.4027,-0.79643 -1.9237,-1.3865 -0.49865,-0.56919 -0.87772,-1.2343 -1.1392,-1.9944 -0.23717,-0.76014 -0.35675,-1.5529 -0.35675,-2.3834 v -8.1875 h -3.4865 v -2.6011" /><path
     style="opacity:0.99883004"
     inkscape:connector-curvature="0"
     id="path372"
     d="m 263.963,75.734 h 2.9899 v 9.79 c 0,1.4966 0.35475,2.6455 1.0683,3.4525 0.7115,0.80677 1.6966,1.2122 2.9534,1.2122 1.2831,0 2.2723,-0.40542 2.9737,-1.2122 0.69934,-0.80696 1.05,-1.9559 1.05,-3.4525 v -9.79 h 3.0244 v 9.8249 c 0,1.141 -0.17027,2.1546 -0.51487,3.0446 -0.34461,0.88765 -0.82502,1.6478 -1.4412,2.2764 -0.61825,0.63042 -1.3581,1.1086 -2.2257,1.4412 -0.86759,0.33244 -1.8203,0.49866 -2.8662,0.49866 -1.0439,0 -1.9926,-0.16622 -2.846,-0.49866 -0.85542,-0.33263 -1.5933,-0.81081 -2.2075,-1.4412 -0.61825,-0.62857 -1.0987,-1.3887 -1.4412,-2.2764 -0.3446,-0.89008 -0.51689,-1.9036 -0.51689,-3.0446 v -9.82" /><path
     style="opacity:0.99883004"
     inkscape:connector-curvature="0"
     id="path374"
     d="m 290.023,90.154 c 0.78243,0 1.4838,-0.15426 2.102,-0.46238 0.61419,-0.30953 1.1372,-0.72932 1.5649,-1.2645 0.4277,-0.53373 0.7581,-1.1759 0.99527,-1.9241 0.23716,-0.74757 0.35676,-1.5464 0.35676,-2.4016 0,-1.1418 -0.14792,-2.0944 -0.44594,-2.8664 -0.29596,-0.76805 -0.68109,-1.3991 -1.1554,-1.8852 -0.47433,-0.48629 -1.0216,-0.83555 -1.6379,-1.05 -0.61622,-0.21304 -1.2466,-0.31987 -1.8852,-0.31987 -0.78447,0 -1.4797,0.15365 -2.0838,0.46399 -0.60407,0.30792 -1.1149,0.73156 -1.5324,1.2787 -0.41556,0.54567 -0.7338,1.1901 -0.9588,1.9401 -0.225,0.74819 -0.33852,1.5631 -0.33852,2.4388 0,1.8282 0.44596,3.2939 1.3338,4.3985 0.89189,1.1007 2.1183,1.6541 3.6852,1.6541 z m 4.9115,-0.0363 c -0.56959,0.66669 -1.275,1.2707 -2.1183,1.814 -0.84122,0.54709 -1.9034,0.81872 -3.1845,0.81872 -1.1169,0 -2.1365,-0.18851 -3.0629,-0.56939 -0.92434,-0.37927 -1.725,-0.94299 -2.402,-1.6906 -0.67501,-0.74819 -1.2041,-1.6658 -1.5831,-2.7586 -0.38107,-1.0887 -0.57163,-2.3374 -0.57163,-3.7381 0,-1.2306 0.19056,-2.3796 0.57163,-3.4318 0.37907,-1.0579 0.90813,-1.9606 1.5831,-2.7079 0.67703,-0.74839 1.4818,-1.3358 2.4203,-1.7619 0.93852,-0.42751 1.9642,-0.64217 3.0811,-0.64217 1.3034,0 2.3757,0.24466 3.219,0.73176 0.84528,0.48851 1.5243,1.0135 2.0473,1.5852 v -11.003 h 3.0264 v 25.632 h -3.0264 v -2.278" /><path
     style="opacity:0.99883004"
     inkscape:connector-curvature="0"
     id="path376"
     d="m 304.013,75.744 v 16.658 h 3.0257 v -16.66 z" /><path
     style="opacity:0.99883004"
     inkscape:connector-curvature="0"
     id="path378"
     d="m 319.743,90.194 c 0.87975,0 1.652,-0.17413 2.3149,-0.51872 0.66486,-0.34035 1.2243,-0.8013 1.6743,-1.3705 0.45001,-0.5694 0.78245,-1.2203 0.99529,-1.9559 0.21486,-0.73642 0.3223,-1.4966 0.3223,-2.2804 0,-0.80292 -0.10748,-1.5835 -0.3223,-2.3311 -0.21284,-0.74818 -0.54528,-1.407 -0.99529,-1.9764 -0.45,-0.57 -1.0095,-1.0261 -1.6743,-1.3705 -0.66285,-0.3446 -1.4352,-0.51488 -2.3149,-0.51488 -0.87568,0 -1.648,0.17028 -2.3108,0.51488 -0.66487,0.34439 -1.2182,0.80048 -1.6581,1.3705 -0.43784,0.5694 -0.76825,1.2282 -0.99527,1.9764 -0.225,0.74758 -0.33852,1.5282 -0.33852,2.3311 0,0.78386 0.11356,1.544 0.33852,2.2804 0.22702,0.73561 0.55743,1.3865 0.99527,1.9559 0.43988,0.56919 0.99326,1.0301 1.6581,1.3705 0.66284,0.34459 1.4352,0.51872 2.3108,0.51872 z m 0,2.7041 c -1.2568,0 -2.396,-0.22722 -3.4156,-0.67703 -1.0216,-0.45202 -1.8872,-1.0666 -2.5987,-1.8489 -0.71149,-0.78386 -1.2628,-1.7151 -1.6561,-2.7951 -0.39123,-1.0824 -0.58785,-2.2504 -0.58785,-3.5086 0,-1.255 0.19662,-2.4268 0.58785,-3.503 0.39324,-1.0824 0.9446,-2.0129 1.6561,-2.7951 0.7115,-0.78467 1.577,-1.4031 2.5987,-1.8529 1.0196,-0.45203 2.1588,-0.67703 3.4156,-0.67703 1.2608,0 2.398,0.225 3.4196,0.67703 1.0196,0.4498 1.8933,1.0682 2.6169,1.8529 0.72162,0.78223 1.2811,1.7126 1.6723,2.7951 0.39324,1.0762 0.58581,2.248 0.58581,3.503 0,1.2582 -0.19257,2.4262 -0.58581,3.5086 -0.39123,1.08 -0.95069,2.0112 -1.6723,2.7951 -0.72366,0.78223 -1.5973,1.3968 -2.6169,1.8489 -1.0216,0.44981 -2.1588,0.67703 -3.4196,0.67703" /><path
     style="opacity:0.99883004"
     inkscape:connector-curvature="0"
     id="path380"
     d="m 233.813,87.944 c 0.33042,0.21528 0.68717,0.46074 1.0662,0.734 0.38108,0.27161 0.79055,0.52094 1.2304,0.74433 0.43784,0.22479 0.90609,0.41574 1.4047,0.56939 0.49866,0.15427 1.0318,0.23271 1.6014,0.23271 0.9507,0 1.6906,-0.17817 2.2257,-0.53292 0.53312,-0.35635 0.80069,-0.87973 0.80069,-1.5685 0,-0.71191 -0.26757,-1.2306 -0.80069,-1.563 -0.53514,-0.33264 -1.3236,-0.70157 -2.3676,-1.1046 l -1.8872,-0.74838 c -1.1615,-0.47576 -2.1061,-1.0745 -2.8298,-1.7982 -0.72366,-0.72529 -1.0845,-1.7268 -1.0845,-3.0098 0,-0.64055 0.13576,-1.2383 0.40945,-1.7958 0.26961,-0.55986 0.65069,-1.046 1.1372,-1.4617 0.48649,-0.41169 1.0642,-0.73947 1.727,-0.97704 0.66488,-0.23919 1.3885,-0.35716 2.171,-0.35716 1.2588,0 2.3149,0.16621 3.1703,0.49885 0.85136,0.33264 1.6845,0.795 2.4912,1.3889 l -1.3176,2.027 c -0.49664,-0.30406 -1.0966,-0.62089 -1.798,-0.94076 -0.70136,-0.3223 -1.5122,-0.48061 -2.4385,-0.48061 -0.71149,0 -1.3277,0.17899 -1.8507,0.53534 -0.52298,0.35312 -0.78245,0.8392 -0.78245,1.4576 0,0.59393 0.16014,1.0642 0.47839,1.4048 0.32027,0.3444 0.96893,0.70947 1.9399,1.0887 l 2.2439,0.88764 c 0.56959,0.23677 1.1108,0.494 1.6216,0.76805 0.50879,0.27163 0.9588,0.59373 1.352,0.96042 0.39121,0.36892 0.69729,0.78873 0.92636,1.2628 0.22298,0.47677 0.33648,1.0302 0.33648,1.6709 0,0.76015 -0.14397,1.441 -0.42568,2.0467 -0.28581,0.60649 -0.69527,1.1293 -1.2304,1.5693 -0.53312,0.43806 -1.1676,0.77454 -1.9034,1.0135 -0.73784,0.23675 -1.5426,0.35473 -2.4223,0.35473 -1.352,0 -2.5804,-0.27142 -3.6832,-0.81872 -1.1048,-0.54142 -2.0939,-1.1354 -2.9737,-1.7783 l 1.4615,-2.2804" /><path
     style="opacity:0.99883004"
     inkscape:connector-curvature="0"
     id="path382"
     d="m 246.773,75.814 h 3.4865 v -5.907 l 2.9554,-0.4275 v 6.34 h 6.5859 v 2.6011 h -6.5859 v 7.4756 c 0,1.4917 0.30811,2.5725 0.92434,3.237 0.61824,0.66507 1.4737,0.99771 2.5642,0.99771 0.68921,0 1.3034,-0.12998 1.8507,-0.39121 0.56959,-0.23758 1.0581,-0.47433 1.4615,-0.71191 l 1.1372,2.2077 c -0.54528,0.37683 -1.2081,0.74596 -1.9926,1.1007 -0.76015,0.38068 -1.6966,0.57163 -2.8135,0.57163 -1.0196,0 -1.9095,-0.17818 -2.6676,-0.53534 -0.76014,-0.33244 -1.4027,-0.79643 -1.9237,-1.3865 -0.49865,-0.56919 -0.87772,-1.2343 -1.1392,-1.9944 -0.23717,-0.76014 -0.35675,-1.5529 -0.35675,-2.3834 v -8.1875 h -3.4865 v -2.6011" /><path
     style="opacity:0.99883004"
     inkscape:connector-curvature="0"
     id="path384"
     d="m 263.963,75.734 h 2.9899 v 9.79 c 0,1.4966 0.35475,2.6455 1.0683,3.4525 0.7115,0.80677 1.6966,1.2122 2.9534,1.2122 1.2831,0 2.2723,-0.40542 2.9737,-1.2122 0.69934,-0.80696 1.05,-1.9559 1.05,-3.4525 v -9.79 h 3.0244 v 9.8249 c 0,1.141 -0.17027,2.1546 -0.51487,3.0446 -0.34461,0.88765 -0.82502,1.6478 -1.4412,2.2764 -0.61825,0.63042 -1.3581,1.1086 -2.2257,1.4412 -0.86759,0.33244 -1.8203,0.49866 -2.8662,0.49866 -1.0439,0 -1.9926,-0.16622 -2.846,-0.49866 -0.85542,-0.33263 -1.5933,-0.81081 -2.2075,-1.4412 -0.61825,-0.62857 -1.0987,-1.3887 -1.4412,-2.2764 -0.3446,-0.89008 -0.51689,-1.9036 -0.51689,-3.0446 v -9.82" /><path
     style="opacity:0.99883004"
     inkscape:connector-curvature="0"
     id="path386"
     d="m 290.023,90.154 c 0.78243,0 1.4838,-0.15426 2.102,-0.46238 0.61419,-0.30953 1.1372,-0.72932 1.5649,-1.2645 0.4277,-0.53373 0.7581,-1.1759 0.99527,-1.9241 0.23716,-0.74757 0.35676,-1.5464 0.35676,-2.4016 0,-1.1418 -0.14792,-2.0944 -0.44594,-2.8664 -0.29596,-0.76805 -0.68109,-1.3991 -1.1554,-1.8852 -0.47433,-0.48629 -1.0216,-0.83555 -1.6379,-1.05 -0.61622,-0.21304 -1.2466,-0.31987 -1.8852,-0.31987 -0.78447,0 -1.4797,0.15365 -2.0838,0.46399 -0.60407,0.30792 -1.1149,0.73156 -1.5324,1.2787 -0.41556,0.54567 -0.7338,1.1901 -0.9588,1.9401 -0.225,0.74819 -0.33852,1.5631 -0.33852,2.4388 0,1.8282 0.44596,3.2939 1.3338,4.3985 0.89189,1.1007 2.1183,1.6541 3.6852,1.6541 z m 4.9115,-0.0363 c -0.56959,0.66669 -1.275,1.2707 -2.1183,1.814 -0.84122,0.54709 -1.9034,0.81872 -3.1845,0.81872 -1.1169,0 -2.1365,-0.18851 -3.0629,-0.56939 -0.92434,-0.37927 -1.725,-0.94299 -2.402,-1.6906 -0.67501,-0.74819 -1.2041,-1.6658 -1.5831,-2.7586 -0.38107,-1.0887 -0.57163,-2.3374 -0.57163,-3.7381 0,-1.2306 0.19056,-2.3796 0.57163,-3.4318 0.37907,-1.0579 0.90813,-1.9606 1.5831,-2.7079 0.67703,-0.74839 1.4818,-1.3358 2.4203,-1.7619 0.93852,-0.42751 1.9642,-0.64217 3.0811,-0.64217 1.3034,0 2.3757,0.24466 3.219,0.73176 0.84528,0.48851 1.5243,1.0135 2.0473,1.5852 v -11.003 h 3.0264 v 25.632 h -3.0264 v -2.278" /><path
     style="opacity:0.99883004"
     inkscape:connector-curvature="0"
     id="path388"
     d="m 304.013,75.744 v 16.658 h 3.0257 v -16.66 z" /><path
     style="opacity:0.99883004"
     inkscape:connector-curvature="0"
     id="path390"
     d="m 319.743,90.194 c 0.87975,0 1.652,-0.17413 2.3149,-0.51872 0.66486,-0.34035 1.2243,-0.8013 1.6743,-1.3705 0.45001,-0.5694 0.78245,-1.2203 0.99529,-1.9559 0.21486,-0.73642 0.3223,-1.4966 0.3223,-2.2804 0,-0.80292 -0.10748,-1.5835 -0.3223,-2.3311 -0.21284,-0.74818 -0.54528,-1.407 -0.99529,-1.9764 -0.45,-0.57 -1.0095,-1.0261 -1.6743,-1.3705 -0.66285,-0.3446 -1.4352,-0.51488 -2.3149,-0.51488 -0.87568,0 -1.648,0.17028 -2.3108,0.51488 -0.66487,0.34439 -1.2182,0.80048 -1.6581,1.3705 -0.43784,0.5694 -0.76825,1.2282 -0.99527,1.9764 -0.225,0.74758 -0.33852,1.5282 -0.33852,2.3311 0,0.78386 0.11356,1.544 0.33852,2.2804 0.22702,0.73561 0.55743,1.3865 0.99527,1.9559 0.43988,0.56919 0.99326,1.0301 1.6581,1.3705 0.66284,0.34459 1.4352,0.51872 2.3108,0.51872 z m 0,2.7041 c -1.2568,0 -2.396,-0.22722 -3.4156,-0.67703 -1.0216,-0.45202 -1.8872,-1.0666 -2.5987,-1.8489 -0.71149,-0.78386 -1.2628,-1.7151 -1.6561,-2.7951 -0.39123,-1.0824 -0.58785,-2.2504 -0.58785,-3.5086 0,-1.255 0.19662,-2.4268 0.58785,-3.503 0.39324,-1.0824 0.9446,-2.0129 1.6561,-2.7951 0.7115,-0.78467 1.577,-1.4031 2.5987,-1.8529 1.0196,-0.45203 2.1588,-0.67703 3.4156,-0.67703 1.2608,0 2.398,0.225 3.4196,0.67703 1.0196,0.4498 1.8933,1.0682 2.6169,1.8529 0.72162,0.78223 1.2811,1.7126 1.6723,2.7951 0.39324,1.0762 0.58581,2.248 0.58581,3.503 0,1.2582 -0.19257,2.4262 -0.58581,3.5086 -0.39123,1.08 -0.95069,2.0112 -1.6723,2.7951 -0.72366,0.78223 -1.5973,1.3968 -2.6169,1.8489 -1.0216,0.44981 -2.1588,0.67703 -3.4196,0.67703" /><path
     style="opacity:0.99883004;stroke:#000000;stroke-width:0.2027"
     inkscape:connector-curvature="0"
     id="path392"
     d="m 305.363,67.714 c -0.61824,0 -1.1504,0.20889 -1.6004,0.62058 -0.45202,0.41493 -0.677,0.97247 -0.677,1.6598 0,0.68493 0.22498,1.2382 0.677,1.6539 0.45001,0.41574 0.98221,0.62355 1.6004,0.62355 0.59191,0 1.1205,-0.20781 1.5826,-0.62355 0.46419,-0.41575 0.69778,-0.96897 0.69778,-1.6539 0,-0.68738 -0.23359,-1.2449 -0.69778,-1.6598 -0.46,-0.41 -0.99,-0.62 -1.58,-0.62 z" /><g
     opacity=".99883"
     transform="translate(-50.047 -66.486)"
     id="g410"><path
       opacity=".99883"
       d="m229.6 87.458h12.318v4.5771c1.277-1.4412 2.8561-2.7325 4.7433-3.8676 1.8852-1.1392 4.3561-1.7068 7.4068-1.7068 2.1629 0 4.1048 0.33244 5.8257 0.99731 1.7189 0.66488 3.1906 1.5953 4.4108 2.7892 1.2203 1.1939 2.1649 2.621 2.8298 4.2852 0.66486 1.6642 0.99731 3.4687 0.99731 5.4102v26.465h-12.316v-22.97c0-2.1641-0.58175-3.8285-1.7473-4.9924-1.1635-1.1664-2.7466-1.7492-4.7433-1.7492-2.0534 0-3.7744 0.72144-5.1609 2.1649-1.3885 1.4426-2.1365 3.5236-2.246 6.2411v21.306h-12.31v-38.952"
       id="path396" /><path
       opacity=".99883"
       d="m296.35 117.17c1.4412 0 2.7041-0.27791 3.7865-0.8321 1.0824-0.5544 1.9987-1.2908 2.7466-2.2052 0.74798-0.91461 1.3014-1.9954 1.6642-3.2465 0.36082-1.2478 0.54122-2.5646 0.54122-3.9519 0-1.3857-0.1804-2.7041-0.54122-3.9535-0.36283-1.2487-0.91622-2.3295-1.6642-3.2463-0.74798-0.9146-1.6642-1.6486-2.7466-2.2052-1.0824-0.5546-2.3453-0.83231-3.7865-0.83231-1.4453 0-2.7061 0.27771-3.7865 0.83231-1.0824 0.55664-1.9966 1.2906-2.7466 2.2052-0.75001 0.91683-1.3196 1.9977-1.7068 3.2463-0.3892 1.2495-0.58176 2.5679-0.58176 3.9535 0 1.3873 0.19256 2.7041 0.58176 3.9519 0.38717 1.2511 0.95677 2.3319 1.7068 3.2465 0.75 0.91439 1.6642 1.6508 2.7466 2.2052 1.0804 0.55419 2.3412 0.8321 3.7865 0.8321zm0 10.486c-3.1622 0-6.0082-0.54163-8.5318-1.6216-2.5237-1.0824-4.6886-2.5504-6.4906-4.4113-1.8041-1.8568-3.1764-4.0502-4.119-6.5762-0.94461-2.5218-1.4149-5.2267-1.4149-8.1129 0-2.8845 0.47027-5.5768 1.4149-8.0725 0.94258-2.4973 2.3149-4.6886 4.119-6.5737 1.802-1.8872 3.9669-3.371 6.4906-4.4554 2.5237-1.0804 5.3696-1.6196 8.5318-1.6196s6.0041 0.5392 8.5298 1.6196c2.5237 1.0845 4.6886 2.5683 6.4906 4.4554 1.8041 1.8852 3.1764 4.0764 4.121 6.5737 0.94257 2.4957 1.4149 5.188 1.4149 8.0725 0 2.8861-0.47231 5.591-1.4149 8.1129-0.9446 2.5259-2.3169 4.7194-4.121 6.5762-1.802 1.8608-3.9669 3.3288-6.4906 4.4113-2.5257 1.08-5.3676 1.6216-8.5298 1.6216"
       id="path398" /><path
       opacity=".99883"
       d="m318.99 87.458h12.067l6.2433 20.14 8.9048-20.14h3.9122l8.8217 20.14 6.4075-20.14h11.568l-13.399 39.282h-5.992l-9.4886-18.976-9.4866 18.976h-6.2413l-13.33-39.282"
       id="path400" /><path
       opacity=".99883"
       fill="#0b0a04"
       d="m50.047 87.458h12.069l6.2433 20.14 8.9028-20.14h3.9122l8.8217 20.14 6.4095-20.14h11.565l-13.396 39.282h-5.992l-9.487-18.98-9.489 18.98h-6.242l-13.317-39.282"
       id="path402" /><path
       opacity=".99883"
       d="m129.53 95.032c-2.1081 0-3.8696 0.66487-5.2845 1.9966-1.4128 1.3336-2.4 3.1365-2.9534 5.4114h15.979c-0.27973-2.1085-1.0277-3.8704-2.248-5.2857-1.2203-1.4149-3.0527-2.1223-5.4933-2.1223zm-8.2379 15.149c0.66487 2.3279 1.9257 4.1729 3.7865 5.5347 1.8588 1.3587 4.1757 2.0398 6.9487 2.0398 2.6635 0 4.8284-0.34925 6.4926-1.0421 1.6642-0.69284 3.2169-1.4846 4.6602-2.3714l4.1615 7.9902c-0.83312 0.60811-1.7899 1.2187-2.8723 1.8282-1.0824 0.61461-2.3027 1.18-3.6608 1.7072-1.3601 0.525-2.8439 0.95656-4.4514 1.2892-1.6115 0.33243-3.3852 0.49885-5.3271 0.49885-3.219 0-6.1318-0.525-8.7406-1.5789-2.6068-1.0524-4.8264-2.5101-6.6568-4.3709-1.8304-1.8568-3.2332-4.0778-4.2021-6.6593-0.97298-2.5772-1.4574-5.393-1.4574-8.4455 0-2.7736 0.44392-5.3962 1.3318-7.8649 0.88784-2.4675 2.175-4.6324 3.8696-6.4912 1.6906-1.8588 3.746-3.3284 6.1582-4.4129 2.4142-1.0804 5.173-1.6196 8.2805-1.6196 3.2169 0 6.0062 0.59393 8.3636 1.7858 2.3574 1.1939 4.2892 2.7487 5.7852 4.6622 1.498 1.9156 2.6068 4.0926 3.3284 6.5332 0.72164 2.4428 1.0845 4.9387 1.0845 7.4908 0 0.38798-0.0163 0.95556-0.0426 1.7064-0.0304 0.74819-0.071 1.346-0.1236 1.7903h-26.716"
       id="path404" /><path
       opacity=".99883"
       d="m168.23 108.6v17.81h-12.32v-59.925h12.316v36.371l11.236-15.397h14.149l-14.232 17.477 17.394 21.472h-14.398l-14.149-17.81"
       id="path406" /><path
       opacity=".99883"
       d="m207.16 87.436-13.439 18.25 16.715 20.718h14.394l-17.418-21.423 14.171-17.545h-14.422"
       stroke="#000"
       stroke-miterlimit="10"
       stroke-width=".57460"
       fill="none"
       id="path408" /></g></svg>